<?xml version="1.0" encoding="utf-8"?>
<!-- Generator: Adobe Illustrator 21.0.0, SVG Export Plug-In . SVG Version: 6.00 Build 0)  -->
<svg version="1.1" id="Capa_1" xmlns="http://www.w3.org/2000/svg" xmlns:xlink="http://www.w3.org/1999/xlink" x="0px" y="0px"
	 viewBox="0 0 50 50" enable-background="new 0 0 50 50" xml:space="preserve">
<g>
	<g>
		<g>
			<linearGradient id="SVGID_1_" gradientUnits="userSpaceOnUse" x1="24.5142" y1="50" x2="24.5142" y2="-5.392722e-07">
				<stop  offset="0" style="stop-color:#000000"/>
				<stop  offset="1" style="stop-color:#603813"/>
			</linearGradient>
			<path fill="url(#SVGID_1_)" d="M26,50c-1.2-2.5,12.1-20.9-0.8-50C25.2,0,8.9,33.9,26,50"/>
			<path fill="#F6A529" d="M22.5,49.4c0,0-21.7-2.9-1.5-45.3C21.1,4.1,17,40.5,22.5,49.4z"/>
			<path fill="#F6A529" d="M27.6,49.4c0,0,21.7-2.9,1.5-45.3C29.1,4.1,33.1,40.5,27.6,49.4z"/>
			<circle fill="#6E1C40" cx="25.1" cy="45.4" r="4.4"/>
			<circle fill="#9D1C40" cx="25.1" cy="36.6" r="4.4"/>
			<circle fill="#BB325C" cx="25.1" cy="27.7" r="4.4"/>
			<path opacity="0.41" d="M25.1,38.9c-2.2,0-4-0.9-4.4-2.9c0,0.2-0.1,0.5-0.1,0.8c0,2.4,2,4.3,4.4,4.3c2.5,0,4.4-1.9,4.4-4.3
				c0-0.3,0-0.5-0.1-0.8C29.1,38,27.3,38.9,25.1,38.9z"/>
			<path opacity="0.41" d="M25.1,47.7c-2.2,0-4-0.9-4.4-2.9c0,0.2-0.1,0.5-0.1,0.8c0,2.4,2,4.3,4.4,4.3c2.5,0,4.4-1.9,4.4-4.3
				c0-0.3,0-0.5-0.1-0.8C29.1,46.8,27.3,47.7,25.1,47.7z"/>
			<path fill="#8B4800" d="M28.3,49.2c1-0.3,2.2-8.3,14-12.6C42.3,36.6,37.7,49.2,28.3,49.2"/>
			<path fill="#B86E00" d="M27.4,49.4c1.1-1.2-2.9-14.2,10-28.2C37.4,21.2,40.2,43.6,27.4,49.4"/>
			<path fill="#B86E00" d="M23.3,49.6c-1.1-1.2,2.9-14.2-10-28.2C13.3,21.4,10.5,43.8,23.3,49.6"/>
		</g>
		<path opacity="0.41" d="M25.1,30.3c-2.2,0-4-1.2-4.4-3.3c0,0.2-0.1,0.5-0.1,0.8c0,2.4,2,4.3,4.4,4.3c2.5,0,4.4-1.9,4.4-4.3
			c0-0.3,0-0.5-0.1-0.8C29.1,29.1,27.3,30.3,25.1,30.3z"/>
	</g>
	<ellipse opacity="0.2" fill="#FFFFFF" cx="25.1" cy="24.3" rx="1.4" ry="0.5"/>
	<ellipse opacity="0.2" fill="#FFFFFF" cx="25.1" cy="33.3" rx="1.4" ry="0.5"/>
	<path fill="#774400" d="M14.2,37.2c0,0,2.9,5.7,5.1,5.7s1.8-8.7,1.6-9.2c0,0,3.1,6.9,2.5,16.3C23.5,50,16.9,47.9,14.2,37.2z"/>
	<path fill="#774400" d="M36.4,37.2c0,0-2.9,5.7-5.1,5.7s-1.8-8.7-1.6-9.2c0,0-3.1,6.9-2.5,16.3C27.2,50,33.7,47.9,36.4,37.2z"/>
	<path fill="#723900" d="M42.3,36.6c0,0-9.2,11.7-16.3,13.4C26,50,38.7,50,42.3,36.6z"/>
</g>
</svg>
