<?xml version="1.0" encoding="utf-8"?>
<!-- Generator: Adobe Illustrator 21.0.0, SVG Export Plug-In . SVG Version: 6.00 Build 0)  -->
<svg version="1.1" id="Capa_1" xmlns="http://www.w3.org/2000/svg" xmlns:xlink="http://www.w3.org/1999/xlink" x="0px" y="0px"
	 viewBox="0 0 50 50" enable-background="new 0 0 50 50" xml:space="preserve">
<g>
	<g>
		<g>
			<path fill="#006259" d="M20.4,10.1c0.6,4.4,4,32.7,2.4,38.9c-0.1,0.5,0.3,1,0.8,1l2.9,0c0.5,0,1-0.5,0.9-0.9
				c-0.9-4.8-5.3-27.9-4.2-39.5c0.1-0.6-0.5-1-1-0.8l-1.2,0.5C20.5,9.5,20.3,9.8,20.4,10.1z"/>
			<path fill="#009F82" d="M7.8,17c0,0,13,14.5,13.1,30.3c0,1.5,1.2,2.7,2.7,2.7h0c1.6,0,2.6-1.5,2.1-2.9C23.2,40.1,16,22.2,7.8,17z
				"/>
			<path fill="#007E82" d="M42.6,1.1c0,0-14.1,22.2-13.7,46.1c0,1.5-1.2,2.7-2.7,2.7h-2.6c-0.4,0-0.7-0.4-0.6-0.8
				C24.3,43.7,32.8,9.9,42.6,1.1z"/>
			<ellipse fill="#E6325C" cx="28.9" cy="34.5" rx="3" ry="2.9"/>
			<path opacity="0.15" d="M24.4,50h1.8c1.5,0,2.7-1.2,2.7-2.7C28.6,23.4,42.7,1.1,42.7,1.1C37,7.6,29.2,27.8,27.5,39.3
				C26.1,48.9,24.8,49.9,24.4,50z"/>
			<ellipse fill="#E6325C" cx="31.1" cy="26.6" rx="3" ry="2.9"/>
			<ellipse fill="#E6325C" cx="21.7" cy="10.8" rx="5.4" ry="5.3"/>
			<ellipse fill="#F6A529" cx="13.2" cy="24.4" rx="3" ry="2.9"/>
			<ellipse fill="#F6A529" cx="17.8" cy="31.6" rx="3" ry="2.9"/>
			<ellipse fill="#F6A529" cx="21.2" cy="39.6" rx="3" ry="2.9"/>
			<ellipse fill="#F6A529" cx="8.2" cy="18.6" rx="3" ry="2.9"/>
			<ellipse fill="#F6A529" cx="21.7" cy="8.7" rx="2.3" ry="2.3"/>
			<ellipse fill="#F6A529" cx="41.8" cy="1.9" rx="1.1" ry="1.1"/>
			<ellipse fill="#F6A529" cx="37.1" cy="10" rx="1.1" ry="1.1"/>
			<ellipse fill="#F6A529" cx="34.1" cy="17.5" rx="1.1" ry="1.1"/>
			<ellipse fill="#F6A529" cx="31.1" cy="25.6" rx="1.1" ry="1.1"/>
			<ellipse fill="#F6A529" cx="28.9" cy="33.5" rx="1.1" ry="1.1"/>
			<path fill="#E6325C" d="M8.7,18c-0.3,0.3-0.7,0.4-1,0.1s-0.4-0.7-0.1-1c0.3-0.3,0.7-0.4,1-0.1C8.9,17.2,9,17.7,8.7,18z"/>
			<path fill="#E6325C" d="M13.8,23.9c-0.3,0.3-0.7,0.4-1,0.1c-0.3-0.3-0.4-0.7-0.1-1c0.3-0.3,0.7-0.4,1-0.1
				C14,23.2,14.1,23.6,13.8,23.9z"/>
			<path fill="#E6325C" d="M18.3,31c-0.3,0.3-0.7,0.4-1,0.1s-0.4-0.7-0.1-1c0.3-0.3,0.7-0.4,1-0.1C18.5,30.3,18.6,30.7,18.3,31z"/>
			<path fill="#E6325C" d="M21.7,39c-0.3,0.3-0.7,0.4-1,0.1s-0.4-0.7-0.1-1c0.3-0.3,0.7-0.4,1-0.1S22,38.7,21.7,39z"/>
		</g>
	</g>
	<path opacity="0.27" d="M8.2,20.5c-1.5,0-2.7-1-2.9-2.4c0,0.2-0.1,0.3-0.1,0.5c0,1.6,1.3,2.9,3,2.9c1.7,0,3-1.3,3-2.9
		c0-0.2,0-0.3-0.1-0.5C10.9,19.4,9.6,20.5,8.2,20.5z"/>
	<path opacity="0.27" d="M13.2,26.3c-1.5,0-2.7-1-2.9-2.4c0,0.2-0.1,0.3-0.1,0.5c0,1.6,1.3,2.9,3,2.9c1.7,0,3-1.3,3-2.9
		c0-0.2,0-0.3-0.1-0.5C15.9,25.3,14.7,26.3,13.2,26.3z"/>
	<path opacity="0.27" d="M17.8,33.5c-1.5,0-2.7-1-2.9-2.4c0,0.2-0.1,0.3-0.1,0.5c0,1.6,1.3,2.9,3,2.9c1.7,0,3-1.3,3-2.9
		c0-0.2,0-0.3-0.1-0.5C20.5,32.5,19.2,33.5,17.8,33.5z"/>
	<path opacity="0.27" d="M21.2,41.5c-1.5,0-2.7-1-2.9-2.4c0,0.2-0.1,0.3-0.1,0.5c0,1.6,1.3,2.9,3,2.9c1.7,0,3-1.3,3-2.9
		c0-0.2,0-0.3-0.1-0.5C23.9,40.4,22.6,41.5,21.2,41.5z"/>
	<path opacity="0.29" d="M28.9,36.5c-1.5,0-2.7-1-2.9-2.4c0,0.2-0.1,0.3-0.1,0.5c0,1.6,1.3,2.9,3,2.9c1.7,0,3-1.3,3-2.9
		c0-0.2,0-0.3-0.1-0.5C31.6,35.4,30.4,36.5,28.9,36.5z"/>
	<path opacity="0.29" d="M31.1,28.5c-1.5,0-2.7-1-2.9-2.4c0,0.2-0.1,0.3-0.1,0.5c0,1.6,1.3,2.9,3,2.9c1.7,0,3-1.3,3-2.9
		c0-0.2,0-0.3-0.1-0.5C33.8,27.5,32.6,28.5,31.1,28.5z"/>
	<path opacity="0.29" d="M21.6,14.2c-2.7,0-4.8-1.9-5.3-4.4c-0.1,0.3-0.1,0.6-0.1,0.9c0,2.9,2.4,5.3,5.4,5.3c3,0,5.4-2.4,5.4-5.3
		c0-0.3,0-0.6-0.1-0.9C26.5,12.3,24.3,14.2,21.6,14.2z"/>
	<ellipse opacity="0.2" fill="#FFFFFF" cx="8.2" cy="16.2" rx="0.9" ry="0.3"/>
	<ellipse opacity="0.2" fill="#FFFFFF" cx="13.2" cy="22.1" rx="0.9" ry="0.3"/>
	<ellipse opacity="0.2" fill="#FFFFFF" cx="17.8" cy="29.2" rx="0.9" ry="0.3"/>
	<ellipse opacity="0.2" fill="#FFFFFF" cx="21.2" cy="37.2" rx="0.9" ry="0.3"/>
	<ellipse opacity="0.2" fill="#FFFFFF" cx="28.9" cy="32" rx="0.6" ry="0.2"/>
	<ellipse opacity="0.2" fill="#FFFFFF" cx="31.1" cy="24.1" rx="0.6" ry="0.2"/>
	<ellipse opacity="0.2" fill="#FFFFFF" cx="41.8" cy="0.4" rx="0.6" ry="0.2"/>
	<ellipse opacity="0.2" fill="#FFFFFF" cx="21.6" cy="6" rx="0.9" ry="0.3"/>
</g>
</svg>
