<?xml version="1.0" encoding="utf-8"?>
<!-- Generator: Adobe Illustrator 21.0.0, SVG Export Plug-In . SVG Version: 6.00 Build 0)  -->
<svg version="1.1" id="Capa_1" xmlns="http://www.w3.org/2000/svg" xmlns:xlink="http://www.w3.org/1999/xlink" x="0px" y="0px"
	 viewBox="0 0 50 50" enable-background="new 0 0 50 50" xml:space="preserve">
<g>
	<g>
		<g>
			<path fill="#009F82" d="M7.6,17c0,0,13,14.5,13.1,30.3c0,1.5,1.2,2.7,2.7,2.7h0c1.6,0,2.6-1.5,2.1-2.9C23,40.1,15.8,22.2,7.6,17z
				"/>
			<path fill="#007E82" d="M42.4,1.1c0,0-14.1,22.2-13.7,46.1c0,1.5-1.2,2.7-2.7,2.7h-2.6c-0.4,0-0.7-0.4-0.6-0.8
				C24.1,43.7,32.6,9.9,42.4,1.1z"/>
			<path opacity="0.15" d="M24.3,50h1.8c1.5,0,2.7-1.2,2.7-2.7C28.4,23.4,42.5,1.1,42.5,1.1C36.8,7.6,29,27.8,27.3,39.3
				C25.9,48.9,24.6,49.9,24.3,50z"/>
			<ellipse fill="#F6A529" cx="41.7" cy="1.9" rx="1.1" ry="1.1"/>
			<ellipse fill="#F6A529" cx="37" cy="10" rx="1.1" ry="1.1"/>
			<ellipse fill="#F6A529" cx="34" cy="17.5" rx="1.1" ry="1.1"/>
			<ellipse fill="#F6A529" cx="31" cy="25.6" rx="1.1" ry="1.1"/>
			<ellipse fill="#F6A529" cx="28.7" cy="33.5" rx="1.1" ry="1.1"/>
			<path fill="#E6325C" d="M8.5,18c-0.3,0.3-0.7,0.4-1,0.1c-0.3-0.3-0.4-0.7-0.1-1c0.3-0.3,0.7-0.4,1-0.1S8.8,17.7,8.5,18z"/>
			<path fill="#E6325C" d="M13.6,23.9c-0.3,0.3-0.7,0.4-1,0.1c-0.3-0.3-0.4-0.7-0.1-1c0.3-0.3,0.7-0.4,1-0.1
				C13.8,23.2,13.9,23.6,13.6,23.9z"/>
			<path fill="#E6325C" d="M18.1,31c-0.3,0.3-0.7,0.4-1,0.1s-0.4-0.7-0.1-1s0.7-0.4,1-0.1S18.4,30.7,18.1,31z"/>
			<path fill="#E6325C" d="M21.6,39c-0.3,0.3-0.7,0.4-1,0.1c-0.3-0.3-0.4-0.7-0.1-1c0.3-0.3,0.7-0.4,1-0.1S21.8,38.7,21.6,39z"/>
		</g>
	</g>
</g>
</svg>
