<?xml version="1.0" encoding="utf-8"?>
<!-- Generator: Adobe Illustrator 21.0.0, SVG Export Plug-In . SVG Version: 6.00 Build 0)  -->
<svg version="1.1" id="Capa_1" xmlns="http://www.w3.org/2000/svg" xmlns:xlink="http://www.w3.org/1999/xlink" x="0px" y="0px"
	 viewBox="0 0 50 50" enable-background="new 0 0 50 50" xml:space="preserve">
<g>
	<g>
		<linearGradient id="SVGID_1_" gradientUnits="userSpaceOnUse" x1="25.0179" y1="50" x2="25.0179" y2="-9.094947e-13">
			<stop  offset="0" style="stop-color:#000000"/>
			<stop  offset="1" style="stop-color:#603813"/>
		</linearGradient>
		<path fill="url(#SVGID_1_)" d="M26.5,50c-1.2-2.5,12.1-20.9-0.8-50C25.7,0,9.4,33.9,26.5,50"/>
		<path fill="#F6A529" d="M23,49.4c0,0-21.7-2.9-1.5-45.3C21.6,4.1,17.6,40.5,23,49.4z"/>
		<path fill="#F6A529" d="M28.1,49.4c0,0,21.7-2.9,1.5-45.3C29.6,4.1,33.6,40.5,28.1,49.4z"/>
		<circle fill="#6E1C40" cx="25.6" cy="45.4" r="4.4"/>
		<circle fill="#9D1C40" cx="25.6" cy="36.6" r="4.4"/>
		<circle fill="#BB325C" cx="25.6" cy="27.7" r="4.4"/>
		<path fill="#009F82" d="M5.2,20c0,0,15.4,23,9.8,23.1C15,43,16.4,39,5.2,20"/>
		<path fill="#009F82" d="M38.2,12c0,0-10.2,25.8-4.7,24.6C33.5,36.6,31.2,32.9,38.2,12"/>
		<path fill="#009F82" d="M15.7,8.6c0,0-1.5,27.7,3.3,24.8C19,33.4,15.8,30.7,15.7,8.6"/>
		<circle fill="#E6325C" cx="25.6" cy="20" r="3.3"/>
		<circle fill="#E84552" cx="25.6" cy="14.2" r="2.5"/>
		<path opacity="0.41" d="M25.6,38.9c-2.2,0-4-0.9-4.4-2.9c0,0.2-0.1,0.5-0.1,0.8c0,2.4,2,4.3,4.4,4.3c2.5,0,4.4-1.9,4.4-4.3
			c0-0.3,0-0.5-0.1-0.8C29.6,38,27.8,38.9,25.6,38.9z"/>
		<path opacity="0.41" d="M25.6,47.7c-2.2,0-4-0.9-4.4-2.9c0,0.2-0.1,0.5-0.1,0.8c0,2.4,2,4.3,4.4,4.3c2.5,0,4.4-1.9,4.4-4.3
			c0-0.3,0-0.5-0.1-0.8C29.6,46.8,27.8,47.7,25.6,47.7z"/>
		<path fill="#8B4800" d="M22.2,49.2c-1-0.3-2.2-8.3-14-12.6C8.2,36.6,12.8,49.2,22.2,49.2"/>
		<path fill="#8B4800" d="M28.8,49.2c1-0.3,2.2-8.3,14-12.6C42.8,36.6,38.2,49.2,28.8,49.2"/>
		<path fill="#B86E00" d="M27.9,49.4c1.1-1.2-2.9-14.2,10-28.2C37.9,21.2,40.7,43.6,27.9,49.4"/>
		<path fill="#B86E00" d="M23.8,49.6c-1.1-1.2,2.9-14.2-10-28.2C13.8,21.4,11,43.8,23.8,49.6"/>
	</g>
	<path opacity="0.41" d="M25.6,15.8c-1.2,0-2.2-0.9-2.4-2c0,0.1,0,0.3,0,0.4c0,1.3,1.1,2.4,2.5,2.4c1.4,0,2.5-1.1,2.5-2.4
		c0-0.1,0-0.3,0-0.4C27.8,14.9,26.8,15.8,25.6,15.8z"/>
	<path opacity="0.41" d="M25.6,22.1c-1.6,0-3-1.2-3.3-2.7c0,0.2-0.1,0.4-0.1,0.6c0,1.8,1.5,3.2,3.3,3.2c1.8,0,3.3-1.5,3.3-3.2
		c0-0.2,0-0.4-0.1-0.6C28.6,21,27.3,22.1,25.6,22.1z"/>
	<path opacity="0.41" d="M25.6,30.3c-2.2,0-4-1.2-4.4-3.3c0,0.2-0.1,0.5-0.1,0.8c0,2.4,2,4.3,4.4,4.3c2.5,0,4.4-1.9,4.4-4.3
		c0-0.3,0-0.5-0.1-0.8C29.6,29.1,27.8,30.3,25.6,30.3z"/>
</g>
<ellipse opacity="0.2" fill="#FFFFFF" cx="25.6" cy="12.3" rx="0.9" ry="0.3"/>
<ellipse opacity="0.2" fill="#FFFFFF" cx="25.6" cy="17.3" rx="1.2" ry="0.4"/>
<ellipse opacity="0.2" fill="#FFFFFF" cx="25.6" cy="24.3" rx="1.4" ry="0.5"/>
<ellipse opacity="0.2" fill="#FFFFFF" cx="25.6" cy="33.3" rx="1.4" ry="0.5"/>
<path fill="#774400" d="M14.7,37.2c0,0,2.9,5.7,5.1,5.7s1.8-8.7,1.6-9.2c0,0,3.1,6.9,2.5,16.3C24,50,17.5,47.9,14.7,37.2z"/>
<path fill="#774400" d="M36.9,37.2c0,0-2.9,5.7-5.1,5.7s-1.8-8.7-1.6-9.2c0,0-3.1,6.9-2.5,16.3C27.7,50,34.2,47.9,36.9,37.2z"/>
<path fill="#723900" d="M8.2,36.6c0,0,9.2,11.7,16.3,13.4C24.5,50,11.8,50,8.2,36.6z"/>
<path fill="#723900" d="M42.8,36.6c0,0-9.2,11.7-16.3,13.4C26.5,50,39.2,50,42.8,36.6z"/>
</svg>
