<?xml version="1.0" encoding="utf-8"?>
<!-- Generator: Adobe Illustrator 21.0.0, SVG Export Plug-In . SVG Version: 6.00 Build 0)  -->
<svg version="1.1" id="Capa_1" xmlns="http://www.w3.org/2000/svg" xmlns:xlink="http://www.w3.org/1999/xlink" x="0px" y="0px"
	 viewBox="0 0 50 50" enable-background="new 0 0 50 50" xml:space="preserve">
<g>
	<g>
		<g>
			<linearGradient id="SVGID_1_" gradientUnits="userSpaceOnUse" x1="26.0179" y1="50" x2="26.0179" y2="-5.392731e-07">
				<stop  offset="0" style="stop-color:#000000"/>
				<stop  offset="1" style="stop-color:#603813"/>
			</linearGradient>
			<path fill="url(#SVGID_1_)" d="M27.5,50c-1.2-2.5,12.1-20.9-0.8-50C26.7,0,10.4,33.9,27.5,50"/>
			<path fill="#F6A529" d="M24,49.4c0,0-21.7-2.9-1.5-45.3C22.6,4.1,18.6,40.5,24,49.4z"/>
			<path fill="#F6A529" d="M29.1,49.4c0,0,21.7-2.9,1.5-45.3C30.6,4.1,34.6,40.5,29.1,49.4z"/>
			<circle fill="#6E1C40" cx="26.6" cy="45.4" r="4.4"/>
			<circle fill="#9D1C40" cx="26.6" cy="36.6" r="4.4"/>
			<circle fill="#BB325C" cx="26.6" cy="27.7" r="4.4"/>
			<circle fill="#E6325C" cx="26.6" cy="20" r="3.3"/>
			<circle fill="#E84552" cx="26.6" cy="14.2" r="2.5"/>
			<path opacity="0.41" d="M26.6,38.9c-2.2,0-4-0.9-4.4-2.9c0,0.2-0.1,0.5-0.1,0.8c0,2.4,2,4.3,4.4,4.3c2.5,0,4.4-1.9,4.4-4.3
				c0-0.3,0-0.5-0.1-0.8C30.6,38,28.8,38.9,26.6,38.9z"/>
			<path opacity="0.41" d="M26.6,47.7c-2.2,0-4-0.9-4.4-2.9c0,0.2-0.1,0.5-0.1,0.8c0,2.4,2,4.3,4.4,4.3c2.5,0,4.4-1.9,4.4-4.3
				c0-0.3,0-0.5-0.1-0.8C30.6,46.8,28.8,47.7,26.6,47.7z"/>
			<path fill="#8B4800" d="M23.2,49.2c-1-0.3-2.2-8.3-14-12.6C9.2,36.6,13.8,49.2,23.2,49.2"/>
			<path fill="#8B4800" d="M29.8,49.2c1-0.3,2.2-8.3,14-12.6C43.8,36.6,39.2,49.2,29.8,49.2"/>
			<path fill="#B86E00" d="M28.9,49.4c1.1-1.2-2.9-14.2,10-28.2C38.9,21.2,41.7,43.6,28.9,49.4"/>
			<path fill="#B86E00" d="M24.8,49.6c-1.1-1.2,2.9-14.2-10-28.2C14.8,21.4,12,43.8,24.8,49.6"/>
		</g>
		<path opacity="0.41" d="M26.6,15.8c-1.2,0-2.2-0.9-2.4-2c0,0.1,0,0.3,0,0.4c0,1.3,1.1,2.4,2.5,2.4c1.4,0,2.5-1.1,2.5-2.4
			c0-0.1,0-0.3,0-0.4C28.8,14.9,27.8,15.8,26.6,15.8z"/>
		<path opacity="0.41" d="M26.6,22.1c-1.6,0-3-1.2-3.3-2.7c0,0.2-0.1,0.4-0.1,0.6c0,1.8,1.5,3.2,3.3,3.2c1.8,0,3.3-1.5,3.3-3.2
			c0-0.2,0-0.4-0.1-0.6C29.6,21,28.3,22.1,26.6,22.1z"/>
		<path opacity="0.41" d="M26.6,30.3c-2.2,0-4-1.2-4.4-3.3c0,0.2-0.1,0.5-0.1,0.8c0,2.4,2,4.3,4.4,4.3c2.5,0,4.4-1.9,4.4-4.3
			c0-0.3,0-0.5-0.1-0.8C30.6,29.1,28.8,30.3,26.6,30.3z"/>
	</g>
	<ellipse opacity="0.2" fill="#FFFFFF" cx="26.6" cy="12.3" rx="0.9" ry="0.3"/>
	<ellipse opacity="0.2" fill="#FFFFFF" cx="26.6" cy="17.3" rx="1.2" ry="0.4"/>
	<ellipse opacity="0.2" fill="#FFFFFF" cx="26.6" cy="24.3" rx="1.4" ry="0.5"/>
	<ellipse opacity="0.2" fill="#FFFFFF" cx="26.6" cy="33.3" rx="1.4" ry="0.5"/>
	<path fill="#774400" d="M15.7,37.2c0,0,2.9,5.7,5.1,5.7s1.8-8.7,1.6-9.2c0,0,3.1,6.9,2.5,16.3C25,50,18.5,47.9,15.7,37.2z"/>
	<path fill="#774400" d="M37.9,37.2c0,0-2.9,5.7-5.1,5.7s-1.8-8.7-1.6-9.2c0,0-3.1,6.9-2.5,16.3C28.7,50,35.2,47.9,37.9,37.2z"/>
	<path fill="#723900" d="M9.2,36.6c0,0,9.2,11.7,16.3,13.4C25.5,50,12.8,50,9.2,36.6z"/>
	<path fill="#723900" d="M43.8,36.6c0,0-9.2,11.7-16.3,13.4C27.5,50,40.2,50,43.8,36.6z"/>
</g>
</svg>
