<?xml version="1.0" encoding="utf-8"?>
<!-- Generator: Adobe Illustrator 21.0.0, SVG Export Plug-In . SVG Version: 6.00 Build 0)  -->
<svg version="1.1" id="Capa_1" xmlns="http://www.w3.org/2000/svg" xmlns:xlink="http://www.w3.org/1999/xlink" x="0px" y="0px"
	 viewBox="0 0 50 50" enable-background="new 0 0 50 50" xml:space="preserve">
<g>
	<g>
		<g>
			<linearGradient id="SVGID_1_" gradientUnits="userSpaceOnUse" x1="24.4375" y1="50" x2="24.4375" y2="-5.390903e-07">
				<stop  offset="0" style="stop-color:#000000"/>
				<stop  offset="1" style="stop-color:#603813"/>
			</linearGradient>
			<path fill="url(#SVGID_1_)" d="M25.9,50C24.7,47.5,38,29.1,25.1,0C25.1,0,8.8,33.9,25.9,50"/>
			<path fill="#F6A529" d="M22.4,49.4c0,0-21.7-2.9-1.5-45.3C21,4.1,17,40.5,22.4,49.4z"/>
			<path fill="#F6A529" d="M27.5,49.4c0,0,21.7-2.9,1.5-45.3C29,4.1,33,40.5,27.5,49.4z"/>
			<circle fill="#6E1C40" cx="25" cy="45.4" r="4.4"/>
			<circle fill="#9D1C40" cx="25" cy="36.6" r="4.4"/>
			<path opacity="0.41" d="M25,38.9c-2.2,0-4-0.9-4.4-2.9c0,0.2-0.1,0.5-0.1,0.8c0,2.4,2,4.3,4.4,4.3c2.5,0,4.4-1.9,4.4-4.3
				c0-0.3,0-0.5-0.1-0.8C29,38,27.2,38.9,25,38.9z"/>
			<path opacity="0.41" d="M25,47.7c-2.2,0-4-0.9-4.4-2.9c0,0.2-0.1,0.5-0.1,0.8c0,2.4,2,4.3,4.4,4.3c2.5,0,4.4-1.9,4.4-4.3
				c0-0.3,0-0.5-0.1-0.8C29,46.8,27.2,47.7,25,47.7z"/>
			<path fill="#B86E00" d="M23.2,49.6c-1.1-1.2,2.9-14.2-10-28.2C13.2,21.4,10.4,43.8,23.2,49.6"/>
		</g>
	</g>
	<ellipse opacity="0.2" fill="#FFFFFF" cx="25" cy="33.3" rx="1.4" ry="0.5"/>
	<path fill="#774400" d="M14.2,37.2c0,0,2.9,5.7,5.1,5.7s1.8-8.7,1.6-9.2c0,0,3.1,6.9,2.5,16.3C23.4,50,16.9,47.9,14.2,37.2z"/>
</g>
</svg>
