<?xml version="1.0" encoding="utf-8"?>
<!-- Generator: Adobe Illustrator 16.0.4, SVG Export Plug-In . SVG Version: 6.00 Build 0)  -->
<!DOCTYPE svg PUBLIC "-//W3C//DTD SVG 1.1//EN" "http://www.w3.org/Graphics/SVG/1.1/DTD/svg11.dtd">
<svg version="1.1" id="Layer_2" xmlns="http://www.w3.org/2000/svg" xmlns:xlink="http://www.w3.org/1999/xlink" x="0px" y="0px"
	 width="1840.438px" height="1071.387px" viewBox="0 0 1840.438 1071.387" enable-background="new 0 0 1840.438 1071.387"
	 xml:space="preserve">
<g id="Layer_3">
	<path fill="#41B4C9" d="M79.801,564.281c0,0-103.248-42.766-93.106-71.42c10.142-28.654,5.25-112.309,5.25-112.309V253.339
		c0,0,0-80.627,0-91.625c0-27.11,5.558-50.075,8.355-56.192c2.797-6.121,28.255-61.8,28.255-61.8l82.574-40.415l15.687,199.264
		l29.899,253.358L79.801,564.281z"/>
	<path fill="#44BACF" d="M71.768,475.738c0,0-15.94-42.798-29.873-62.483C27.96,393.566,12.928,368.2,19.556,342.379
		c6.627-25.82,8.377-62.009,10.635-100.925c2.258-38.917,19.147-72.622,17.367-97.85c-1.782-25.228-11.99-41.73-11.955-57.988
		c0.035-16.259,13.36-74.527,14.479-76.976c1.117-2.449,47.766-5.334,47.766-5.334h37.38h42.653l28.097,237.14l-8.86,255.61
		l-9.952,94.58L71.768,475.738z"/>
	<path fill="#4BC5D9" d="M133.236,477.21c0,0-35.12-31.592-33.545-64.163c1.576-32.569-1.222-52.345-10.206-68.287
		c-8.985-15.943-8.425-43.062-0.677-71.327c7.746-28.269-12.883-41.398-8.214-62.938c4.67-21.536-0.643-61.693,8.307-81.277
		c8.952-19.578,16.717-55.977,13.902-67.62c-2.815-11.646,11.945-56.896,11.945-56.896l37.75-1.395h48.27l44.451,15.395
		l-4.944,272.938c0,0,6.148,141.889,5.92,144.005c-0.229,2.114-6.877,113.738-6.877,113.738L127.59,513.835L133.236,477.21z"/>
	<path fill="#4ECADE" d="M163.049,8.857c0,0-10.551-5.549-17.903,15.139c-11.938,33.6-5.806,32.113-4.094,63.967
		c1.712,31.854,11.169,35.438,0.19,65.927c-10.98,30.489-21.505,30.854-12.084,50.698c9.422,19.843,24.402,69.602,18.283,92.692
		c-6.12,23.095-10.353,48.53-6.209,63.739c4.142,15.212,13.268,17.904,14.894,38.62c1.625,20.716-18.394,33.758-9.636,51.818
		c8.758,18.06,24.631,41.594,24.631,41.594l119.581,10.284l-4.997-463.159l-60.637-28.497L163.049,8.857z"/>
	<polygon fill="#41B4C9" points="-18.273,1095.818 -18.767,739.167 215.957,993.359 464.286,1095.818 	"/>
	<path fill="#44BACF" d="M232.891,1124.347c0,0-86.154-33.567-86.487-59.968c-0.332-26.403-15.586-43.229-31.254-85.891
		s0.061-74.064-16.463-102.925c-16.522-28.857-45.07-51.095-53.398-69.257c-8.326-18.156-39.185-67.605-38.254-69.928
		c0.931-2.319,33.258-151.075,33.258-151.075l90.983-25.733l110.973,121.706l217.233,361.326l30.821,70.328L232.891,1124.347z"/>
	<path fill="#4BC5D9" d="M455.547,1095.818c0,0-41.417-3.709-71.217-18.812c-29.804-15.101-48.879-41.726-54.468-69.901
		c-5.591-28.18-56.535-39.833-63.256-61.229c-6.721-21.397-47.224-60.459-43.943-80.191c3.287-19.731-8.32-55.883-22.607-67.134
		c-14.291-11.25-23.329-62.818-23.329-62.818L141.66,590.638l171.088-41.256l139.579,198.654l193.37,267.932l119.043,79.85H455.547z
		"/>
	<path fill="#4ECADE" d="M270.2,698.426c0,0,46.742,28.062,41.3,60.742c-5.441,32.68,12.327,31.836,39.462,62.968
		c27.134,31.131,48.677,34.088,49.469,64.636c0.788,30.55-19.943,31.533,13.638,50.432c33.579,18.898,100.525,66.801,105.506,89.808
		c4.983,23.011,15.478,25.228,35.068,39.896c19.596,14.672,58.484,28.913,58.484,28.913h99.48l525.162-254.501L733.014,701.882
		l-394.208-97.859L270.2,698.426z"/>
	<polygon fill="#41B4C9" points="1646.926,-25.353 1870.33,-25.353 1870.33,520.431 1821.847,329.371 1543.07,-22.77 	"/>
	<path fill="#44BACF" d="M1570.36,41.373c0,0,70.027,50.976,117.766,75.413c47.737,24.44,102.379,55.493,106.419,83.804
		c4.033,28.31,27.424,69.12,51.695,112.946c24.269,43.832,10.157,79.543,33.524,108.444c23.364,28.899-9.436,130.297-9.436,130.297
		V821.51l-50.896-17.151l-81.221-155.591l-392.826-401.229L1301.31,68.124l101.082-40.844L1570.36,41.373z"/>
	<path fill="#4BC5D9" d="M1362.676,205.077c0,0,90.279,38.05,108.104,72.018c17.825,33.967,36.124,55.113,64.276,73.099
		c28.155,17.986,44.491,46.375,47.258,74.968c2.766,28.593,52.301,45.248,56.863,67.206c4.562,21.96,40.986,64.852,35.762,84.156
		c-5.231,19.312,58.728,40.654,71.827,53.269c13.103,12.615,39.905,68.725,39.905,68.725l77.383,183.803h-310.166l-119.162-211.533
		l-165.808-285.81c0,0-103.562-149.792-104.468-151.981c-0.906-2.188-59.505-108.643-59.505-108.643l245.407,43.063
		L1362.676,205.077z"/>
	<path fill="#4ECADE" d="M1423.624,400.157c-31.535-22.14-93.396-76.453-96.068-99.84c-2.673-23.393-10.611-49.504-28.649-66.044
		c-18.041-16.543-37.952-20.638-54.524-42.61c-16.565-21.973,14.909-32.877-14.153-53.053
		c-29.065-20.174-292.777,126.979-292.777,126.979l175.781,149.758C1113.23,415.346,1455.162,422.299,1423.624,400.157z"/>
</g>
<g>
	<path fill="#E8E088" stroke="#BAAD4D" stroke-width="18.1267" stroke-miterlimit="10" d="M1853.08,926.49
		c-31.203-25.822,17.475-139.924-3.611-162.944c-21.087-23.021-182.982,28.606-191.906-45.396
		c-8.926-74.003,61.101-89.613,114.584-89.613c53.484,0,110.188-27.569,106.007-94.379c-4.184-66.807-59.363-52.518-67.737-100.466
		c-8.374-47.949-31.207,1.079-31.207-56.32s11.599-174.457-38.548-170.336c-50.147,4.12-37.646,117.119-41.83,144.309
		c-4.183,27.188-41.827,100.388-50.193,23.006c-8.364-77.383,58.144-131.557,8.926-185.854
		c-49.219-54.299-119.771-54.662-109.312-92.308c10.456-37.646,81.565-15.849,83.656-50.193
		C1634,11.649,1592.17-0.018,1592.17-0.018H-7.778v219.602c0,0,56.272,2.091,99.244,23.005
		c42.973,20.914,100.233,84.255,131.293,75.292c43.439-12.536,58.08,76.444-57.697,39.042
		C127.955,344.935,50.78,390.66,50.78,390.66l-83.656,3.664v239.364c0,0,16.902,23.006,31.371,54.378
		c14.468,31.372-7.121,188.228,19.445,202.868c26.567,14.64,84.087,14.161,94.018-21.153c9.932-35.315-28.754-206.812,0-210.994
		c28.755-4.185,69.333-66.926,65.775-27.188c-3.558,39.736-57.969,93.058-48.714,124.612c9.255,31.56,3.329,147.272,24.242,166.097
		c20.915,18.82,129.382,56.997,155.669,23.27c26.287-33.727,30.418-113.202,37.764-138.299c7.345-25.097,32.443-33.432,82.637-37.63
		c50.194-4.197,146.401-27.173,123.395,0c-23.006,27.173-79.475,50.177-79.475,89.916c0,39.738,14.641,104.769,52.286,99.442
		c37.646-5.327,110.846-78.527,154.766-78.527c43.921,0,109.529-1.688,126.781-40.25s80.165-53.864,57.843-12.035
		c-22.32,41.826-92.601,103.296-138.611,109.162c-46.013,5.865-125.486,47.988-125.486,47.988s-92.022,41.533-173.588,37.351
		c-81.566-4.182-169.854,5.273-221.263,32.671c-51.41,27.398-102.068,55.201-28.243,57.292c73.825,2.091,1667-8.465,1667-8.465
		S1928.889,989.234,1853.08,926.49z M1485.077,336.574c-6.135,11.778-21.703,18.46-43.29,21.865
		c-4.317,0.681-8.875,1.231-13.646,1.665c-78.684,5.042-158.162-6.113-236.484-7.754c-4.729-0.24-9.455-0.551-14.181-0.962
		c-7.087-0.615-14.173-1.454-21.256-2.607c-3.54-0.577-7.083-1.23-10.632-1.977c-3.797-0.844-7.621-1.519-11.463-2.075
		c-3.844-0.557-7.702-0.997-11.571-1.375c-12.927-0.517-25.476-3.306-38.414-3.769c-4.524-0.402-9.052-0.831-13.535-1.375
		c-22.416-2.717-43.767-8.271-58.583-27.444c-6.042-7.899-6.042-15.182-2.693-21.841c1.672-3.329,4.182-6.502,7.191-9.52
		c7.085-5.761,14.347-12.691,20.93-19.944c2.195-2.417,4.313-4.871,6.326-7.329c2.146-2.326,4.183-4.514,6.087-6.552
		c6.78-10.109,16.541-17.081,27.695-21.265c8.365-1.395,16.731,0,23.703-2.789c18.824-8.714,38.171-14.641,57.854-18.573
		c4.922-0.983,9.874-1.833,15.021-2.354c28.913,0.013,55.407,11.167,84.688,6.984c22.311-2.788,44.62-11.154,66.61-8.408
		c4.921,0.25,9.938,0.491,14.949,0.706c3.862,0.581,7.697,1.13,11.532,1.593c19.073,2.34,38.125,2.526,57.759-5.683
		c3.215-0.415,6.412-0.715,9.549-0.908c62.754-3.837,100.456,36.212,43.903,55.944
		C1395.263,274.506,1507.982,292.603,1485.077,336.574z"/>
	<path fill="#E8E088" d="M1853.08,915.273c-31.203-26.215,17.475-142.057-3.611-165.428
		c-21.087-23.371-182.982,29.044-191.906-46.088c-8.926-75.13,61.101-90.979,114.584-90.979c53.484,0,110.188-27.99,106.007-95.812
		c-4.184-67.825-59.363-53.316-67.737-101.998c-8.374-48.68-31.207,1.096-31.207-57.18c0-58.274,11.599-177.115-38.548-172.933
		c-50.147,4.184-37.646,118.905-41.83,146.508c-4.183,27.604-41.827,101.919-50.193,23.356
		c-8.364-78.562,58.144-133.561,8.926-188.686c-49.219-55.125-119.771-55.494-109.312-93.715
		c10.456-38.219,81.565-16.09,83.656-50.959c2.093-34.867-39.737-46.713-39.737-46.713H-7.778v222.948
		c0,0,56.272,2.123,99.244,23.356c42.973,21.232,100.233,85.538,131.293,76.439c43.439-12.727,58.08,77.61-57.697,39.637
		c-37.107-12.17-114.282,34.253-114.282,34.253l-83.656,3.719v243.012c0,0,16.902,23.354,31.371,55.205
		c14.468,31.85-7.121,191.096,19.445,205.96c26.567,14.866,84.087,14.378,94.018-21.476c9.932-35.853-28.754-209.965,0-214.212
		c28.755-4.247,69.333-67.944,65.775-27.604c-3.558,40.344-57.969,94.478-48.714,126.514c9.255,32.039,3.329,149.519,24.242,168.628
		c20.915,19.108,129.382,57.865,155.669,23.624c26.287-34.243,30.418-114.928,37.764-140.407
		c7.345-25.479,32.443-33.94,82.637-38.203c50.194-4.263,146.401-27.588,123.395,0c-23.006,27.588-79.475,50.941-79.475,91.285
		c0,40.346,14.641,106.366,52.286,100.958c37.646-5.407,110.846-79.723,154.766-79.723c43.921,0,109.529-1.714,126.781-40.865
		c17.252-39.147,80.165-54.683,57.843-12.218c-22.32,42.467-92.601,104.87-138.611,110.825
		c-46.013,5.956-125.486,48.723-125.486,48.723s-92.022,42.165-173.588,37.92c-81.566-4.247-169.854,5.353-221.263,33.168
		c-51.41,27.814-102.068,56.041-28.243,58.164c73.825,2.123,1667-8.594,1667-8.594S1928.889,978.973,1853.08,915.273z
		 M1485.077,316.37c-6.135,11.958-21.703,18.742-43.29,22.199c-4.317,0.691-8.875,1.25-13.646,1.69
		c-78.684,5.119-158.162-6.206-236.484-7.873c-4.729-0.243-9.455-0.561-14.181-0.978c-7.087-0.625-14.173-1.477-21.256-2.646
		c-3.54-0.586-7.083-1.251-10.632-2.007c-3.797-0.857-7.621-1.542-11.463-2.107c-3.844-0.563-7.702-1.012-11.571-1.396
		c-12.927-0.525-25.476-3.356-38.414-3.826c-4.524-0.408-9.052-0.844-13.535-1.396c-22.416-2.757-43.767-8.397-58.583-27.861
		c-6.042-8.021-6.042-15.414-2.693-22.174c1.672-3.379,4.182-6.602,7.191-9.664c7.085-5.851,14.347-12.886,20.93-20.25
		c2.195-2.454,4.313-4.945,6.326-7.439c2.146-2.361,4.183-4.584,6.087-6.652c6.78-10.264,16.541-17.342,27.695-21.589
		c8.365-1.414,16.731,0,23.703-2.832c18.824-8.847,38.171-14.862,57.854-18.856c4.922-0.998,9.874-1.861,15.021-2.389
		c28.913,0.012,55.407,11.337,84.688,7.09c22.311-2.831,44.62-11.325,66.61-8.536c4.921,0.254,9.938,0.499,14.949,0.717
		c3.862,0.589,7.697,1.147,11.532,1.617c19.073,2.376,38.125,2.564,57.759-5.77c3.215-0.421,6.412-0.728,9.549-0.922
		c62.754-3.896,100.456,36.765,43.903,56.796C1395.263,253.356,1507.982,271.729,1485.077,316.37z"/>
</g>
</svg>
