<?xml version="1.0" encoding="utf-8"?>
<!-- Generator: Adobe Illustrator 18.0.0, SVG Export Plug-In . SVG Version: 6.00 Build 0)  -->
<!DOCTYPE svg PUBLIC "-//W3C//DTD SVG 1.1//EN" "http://www.w3.org/Graphics/SVG/1.1/DTD/svg11.dtd">
<svg version="1.1" id="Capa_1" xmlns="http://www.w3.org/2000/svg" xmlns:xlink="http://www.w3.org/1999/xlink" x="0px" y="0px"
	 viewBox="0 0 100 100" enable-background="new 0 0 100 100" xml:space="preserve">
<g>
	<path fill="#FFFFFF" d="M84.2,15.8C75.5,7,63.4,1.6,50,1.6C23.3,1.6,1.6,23.3,1.6,50c0,13.4,5.4,25.5,14.2,34.2S36.6,98.4,50,98.4
		c26.7,0,48.4-21.7,48.4-48.4C98.4,36.6,93,24.5,84.2,15.8z"/>
	<g>
		<defs>
			<path id="SVGID_1_" d="M50,1.8C23.3,1.8,1.6,23.4,1.6,50.2c0,13.4,5.4,25.5,14.2,34.2L84.2,16C75.5,7.2,63.4,1.8,50,1.8z"/>
		</defs>
		<clipPath id="SVGID_2_">
			<use xlink:href="#SVGID_1_"  overflow="visible"/>
		</clipPath>
		<g clip-path="url(#SVGID_2_)">
			<path fill="#32BEC1" d="M50,2C23.3,2,1.6,23.6,1.6,50.4c0,13.4,5.4,25.5,14.2,34.2l68.4-68.4C75.5,7.4,63.4,2,50,2z"/>
		</g>
		<g clip-path="url(#SVGID_2_)">
			<path fill="#603E53" d="M22.3,59.2c0-2,0.1-4.1,0.3-6.1c0.4-3.4,1.4-7.1,3.9-9.3c2.5-2.3,6.4-2.9,8.2-5.8
				c0.2-0.3,1.2-1.4,1.6-1.5c0.2-0.1,1.1,0,1.3,0c1.8,0.3,2.6,0.3,4.4,0c-1.9,2.9-5.1,5.6-7.5,8.2c-0.5,0.6-1,1.2-1.3,1.9
				c-0.3,0.9-0.4,1.8-0.4,2.7c0,1.1,0,2.2,0.2,3.3c0.2,1.1,0.7,2.1,1.5,2.8c0.2,0.1,1.9,1.1,1.9,1.3c0,0.1-1.1,1-1.1,1.1
				c-1,2-2.9,4.5-4.4,6.2c-0.8-1.9-1.7-4.4-3.2-5.8c0,2.5-0.6,3.4-1.3,5.8c-1.5-1.5-2.9-1.8-4.2-3.4"/>
			<path fill="#6D2446" d="M14.6,59.4c0.4,0.1,0.7,0.5,0.9,0.9c1.1,2.5,2.1,5.1,2.9,7.7"/>
			<path fill="#6D2446" d="M34.3,56.2c0.6-0.7,1.2-1.3,1.9-1.9c0.5,2.3,1.2,5.2,2,7.4c1.5-2,3.2-4.8,4.8-6.7
				c-0.4,1.9-0.1,3.9,0.8,5.6c1.7-1.5,3.9-2.4,6.1-2.7c-1.4,0.6-2.3,2-3,3.4c-1.1,2-2.2,4-3.2,6"/>
			<path fill="#6D2446" d="M18.3,68.1c2.2-0.8,4.7-0.6,7.1-0.4c4.1,0.3,8.2,0.5,12.2,0.7c2.1,0.1,4.3,0.1,6-1.1"/>
			<path fill="#E78C34" d="M34.7,13.5c0-1.8-0.2-3.7-0.6-5.5c1.4,0.9,2.8,1.7,4.2,2.4c0.2-1.2,0.6-2.5,0.9-3.7
				c0.9,0.8,1.6,1.8,2.1,2.9c1.4-1,2.8-2.1,4-3.3c-0.3,1.9-0.4,3.9-0.4,5.8"/>
			<path fill="#E8A054" d="M34.1,34.6c-2.8-1.8-5.4-4.4-6-7.8C28,26.1,28,25.4,28,24.6c0-3.1,0.8-6.3,3-8.4c0.8-0.7,1.6-1.3,2.6-1.8
				c2.6-1.4,5.4-2.4,8.4-2.5c2.9-0.1,5.9,0.8,8.2,2.7c0.6,0.5,1.2,1.1,1.6,1.9c0.4,0.7,0.5,1.6,0.7,2.4c0.2,1.2,0.4,2.4,0.5,3.6
				c0.3,4.6-1.9,9.3-5.6,11.9"/>
			<g>
				<path fill="#F7C98F" d="M36.3,35.3c-2-1.3-3.9-2.8-5.5-4.5c-1.9-2.2-2.6-4.4-2.4-7.2c0.2-2.8,1.2-5.6,3.4-7.5
					c2.2-1.9,5.3-3,8.1-3.5c3-0.5,6,0,8.6,1.5c1.3,0.8,2.5,1.9,3,3.3c0.5,1.4,0.7,3.1,0.8,4.6c0.5,5-3.3,10.1-7.1,12.9
					c-0.5,0.3,0,1.1,0.5,0.8c4.5-3.3,8.2-8.9,7.4-14.6c-0.2-1.4-0.4-3.1-1-4.4c-0.6-1.4-1.7-2.3-2.9-3.2c-2.6-1.8-6-2.3-9.1-1.9
					c-3,0.4-6.3,1.6-8.7,3.5C29,17,28,19.7,27.6,22.7c-0.4,2.9,0.1,5.5,1.9,7.8c1.7,2.2,4,4,6.3,5.5C36.3,36.4,36.8,35.6,36.3,35.3
					L36.3,35.3z"/>
			</g>
			<path fill="#F7C98F" d="M33.9,14.1c-0.2,0.7,0.2,1.6,0.7,2.1c1.3,1.5,3.5,2,5.2,1.2c1.8-0.8,2.8-2.9,2.3-4.8
				c-0.1-0.3-0.2-0.6-0.5-0.8c-0.2-0.1-0.5-0.1-0.7-0.1C38.4,12.1,36.2,12.9,33.9,14.1"/>
			<path fill="#F7C98F" d="M41.8,21.7c-1.4,0.5-2.4,1.9-2.5,3.4c-0.1,1.5,0.6,3,1.7,4c1.1,1,2.6,1.5,4.1,1.6c0.6,0,1.3,0,1.9-0.3
				c1-0.4,1.7-1.4,2-2.4c0.4-1.1,0.5-2.4,0-3.5c-0.8-1.8-2.8-2.7-4.8-3.1c-1-0.2-2.3,0-3.1,0.7"/>
			<path fill="#F7C98F" d="M28.2,25.7c0.3-0.4,0.4-0.3,0.8-0.5c1.4-0.8,3.3-0.7,4.7,0.2S36,28,36,29.6c0.1,1.6-0.7,3.3-1.8,4.4
				c-0.1,0.1-0.2,0.2-0.3,0.2c-0.1,0-0.3-0.1-0.4-0.2c-2.3-1.2-3.7-3.5-4.9-5.8c-0.4-0.9-1.5-3.3,1.5-3.1"/>
			<path fill="#E78C34" d="M35.5,37c-0.6-0.8-1.1-1.7-1.3-2.7c0-0.3-0.1-0.6,0.1-0.7c0.2-0.1,0.4-0.1,0.6-0.1
				c0.9,0.1,1.9,0.4,2.8,0.6c2,0.4,4.2,0.4,6.2,0c0.9-0.2,1.8-0.5,2.8-0.7c0.1,0,0.2-0.1,0.3,0c0.1,0,0.1,0.1,0.2,0.2
				c0.3,0.7-0.1,1.5-0.7,2c-0.6,0.5-1.3,0.7-2,0.9c-0.9,0.3-1.9,0.5-2.8,0.8"/>
			<path fill="#6D2446" d="M14,58.9l7.3,3.5l-1.8-7.8l6.8,8.2c0,0,1.9-6.9,1.2-8.4c-0.7-1.6,3.6,5.8,3.6,5.8s3.1-4.6,3.4-5.4
				c0.4-0.8,2-2.4,2-2.4s1.5,8.1,2.2,8.4s5.8,3.8,5.8,3.8s0.4,3.9-0.5,4.4c-0.9,0.5-15.8,0.5-15.8,0.5l-3.5-0.1c0,0-5.2-0.3-6.2,0
				c-1,0.3-0.9,0.1-0.9,0.1L14,58.9z"/>
			<path fill="#603E53" d="M11.9,60.1L24,68.5l-3.1-8.4l6.6,7.5c0,0,1.1-6.7,0.8-8.5c-0.3-1.8,3,6,3.7,7.5c0.7,1.5,4.5-10,4.5-10
				l2.2,9.2c0,0,5.2-5.9,5.4-6.7c0.2-0.9,1.3,4.7,1.3,4.7s4.1-4,4.5-3.9c0.4,0.1-3.7,9.9-3.7,9.9s-1.9,1.6-13.9,1.6
				c-12,0-16.3-1.1-16.3-1.1L11.9,60.1z"/>
		</g>
	</g>
	<g>
		<defs>
			<path id="SVGID_3_" d="M15.8,84.4c8.8,8.8,20.9,14.2,34.2,14.2c26.7,0,48.4-21.7,48.4-48.4c0-13.4-5.4-25.5-14.2-34.2L15.8,84.4z
				"/>
		</defs>
		<clipPath id="SVGID_4_">
			<use xlink:href="#SVGID_3_"  overflow="visible"/>
		</clipPath>
		<g clip-path="url(#SVGID_4_)">
			<path fill="#F26A3B" d="M16.3,85.2c8.8,8.8,20.9,14.2,34.2,14.2c26.7,0,48.4-21.7,48.4-48.4c0-13.4-5.4-25.5-14.2-34.2L16.3,85.2
				z"/>
		</g>
		<g clip-path="url(#SVGID_4_)">
			<g>
				<path fill="#AC3F2E" d="M70.1,97c0-1.1,5.5-14.3,5.5-15.3c-0.1-3.5-4.6-7-5-10.4"/>
			</g>
			<g>
				<path fill="#AC3F2E" d="M72.4,80.8l-2.2-11.3h4.4c3.7,37.5-4.4,13.6-4.9,20.4"/>
			</g>
			<g>
				<path fill="#F99D36" d="M71.3,58.1c0.3-1.8,0.7-7.7,1-9.1c0.8-4.7,1.5-8.7,2-13.3c0,4.8,0.4,15.1,0.2,19.9"/>
			</g>
			<g>
				<path fill="#00B49E" d="M58.3,98.4C59,94.3,57.7,90,55,86.9c0.6,0,1.2,0.3,1.8,0.7c2.9,1.9,5.7,3.8,8.6,5.6
					c0.5-2.9,1.4-5.7,2.6-8.3c0.5,2.6,1.5,5.1,2.9,7.3c1.7-2.6,3.5-5,5.6-7.3c0.3,3,0.7,6.4,3,8.3c-0.1-4.1,2.4-8.1,6.2-9.9
					c-1,3-1,6.3,0,9.4c2.2-2.3,3.7-5.3,4.2-8.4c1.8,4.5,1.8,9.7,0,14.2"/>
			</g>
			<g>
				<path fill="#00B49E" d="M58.3,98.4c10.5-1.2,21-0.9,31.5,0.1"/>
			</g>
			<g>
				<path fill="#B42C38" d="M68,67.8c0.1,1.1,0.3,2,0.5,3.1c2.6-0.1,5.3,0,7.9,0.4c0.3,0,0.6,0.1,0.9,0.3c-0.4-0.9-0.8-1.8-1.2-2.7
					c-0.1-0.1-0.1-0.3-0.3-0.4c-0.1-0.1-0.2-0.1-0.4-0.2c-1.1-0.3-2.2-0.4-3.2-0.4C70.7,68,69.7,68.2,68,67.8"/>
			</g>
			<g>
				<path fill="#EF3F53" d="M62.6,62.1c-3.5-3-7-6.1-10.6-9.1c5.5,0.9,10.8,3.2,15.1,6.7c-1.1-5.5-2.3-11-3.4-16.5
					c3.8,4.2,6.7,9.2,8.3,14.6c-0.1-1.3,0.5-2.5,1.1-3.6c1.8-3.6,3.7-7.1,5.8-10.5c-0.4,5-0.8,10.1-0.2,15.1c2.6-4.1,6-7.8,9.9-10.7
					c-0.7,1.8-1.5,3.5-2.2,5.3c-1.3,3.1-2.6,6.3-4.7,8.9c4.1-3.1,9-5.2,14.1-6c-4.1,3.1-8,6.4-11.6,10.1c2.5-0.9,5.5-0.5,7.8,1
					c-2.8-0.1-5.6,0.3-8.3,0.9c2.3,1.1,4.2,3,5.2,5.4c-4.3-2-8.4-6.4-13.8-5.2"/>
			</g>
			<g>
				<path fill="#EF3F53" d="M63.2,62c-3.2-1.4-7.8-1.7-11.3-1.5c3.9,1.9,7.9,3.5,12,4.9c-1.2-0.2-2.4,0.6-3.3,1.3
					c-0.7,0.5-1.4,1.1-2.1,1.6c-0.9,0.7-1.8,1.5-1.7,2.6c3.5-2.1,14.9-3.3,18.7-2.4"/>
			</g>
			<g>
				<path fill="#F99D36" d="M73.2,30.7c-0.3,0.1-0.4,0.4-0.6,0.7c-0.3,0.7-0.6,1.4-0.5,2.2c0.1,0.7,0.5,1.2,1.1,1.6
					c0.6,0.3,1.3,0.4,1.9,0.3c0.3,0,0.6-0.1,0.8-0.3c0.3-0.3,0.5-0.7,0.5-1.2c0.1-0.7,0.3-1.4,0-2.1c-0.3-0.7-1-1.1-1.7-1.4
					c-0.4-0.1-0.7-0.3-1.1-0.2c-0.6,0-0.9,0.7-1.1,1.3"/>
			</g>
			<path fill="#E78C34" d="M74.5,35.5c0,0-2-3.5-0.6-5.1c0,0-1.8,0.1-1.8,2.5S74.5,35.5,74.5,35.5z"/>
			<path fill="#E78C34" d="M74.4,37l-1.8,17.9L72,57.5l-0.5-1C71.5,56.5,74,37.3,74.4,37z"/>
			<polygon fill="#8F3128" points="71.3,70.9 74,87.8 70.8,92.2 70.2,91.2 70.6,71.2 			"/>
		</g>
	</g>
	<g>
		<path fill="none" stroke="#000000" stroke-miterlimit="10" d="M50,2.6C23.3,2.6,1.6,24.2,1.6,50.9c0,13.4,5.4,25.5,14.2,34.2
			l68.4-68.4C75.5,8,63.4,2.6,50,2.6z"/>
		<path fill="none" stroke="#000000" stroke-miterlimit="10" d="M15.8,85.2c8.8,8.8,20.9,14.2,34.2,14.2c26.7,0,48.4-21.7,48.4-48.4
			c0-13.4-5.4-25.5-14.2-34.2L15.8,85.2z"/>
	</g>
	<path d="M50,99.8C22.5,99.8,0.2,77.5,0.2,50S22.5,0.2,50,0.2S99.8,22.5,99.8,50S77.5,99.8,50,99.8z M50,3.1
		C24.1,3.1,3.1,24.1,3.1,50S24.1,96.9,50,96.9S96.9,75.9,96.9,50S75.9,3.1,50,3.1z"/>
</g>
</svg>
