<?xml version="1.0" encoding="utf-8"?>
<!-- Generator: Adobe Illustrator 16.0.4, SVG Export Plug-In . SVG Version: 6.00 Build 0)  -->
<!DOCTYPE svg PUBLIC "-//W3C//DTD SVG 1.1//EN" "http://www.w3.org/Graphics/SVG/1.1/DTD/svg11.dtd">
<svg version="1.1" id="Layer_2" xmlns="http://www.w3.org/2000/svg" xmlns:xlink="http://www.w3.org/1999/xlink" x="0px" y="0px"
	 width="1300px" height="800px" viewBox="0 0 1300 800" enable-background="new 0 0 1300 800" xml:space="preserve">
<g id="Layer_3">
	<path fill="#41B4C9" d="M63.009,402.316c0,0-74.047-30.671-66.774-51.221C3.509,330.545,0,270.551,0,270.551v-91.235
		c0,0,0-57.824,0-65.711c0-19.442,3.986-35.912,5.992-40.3c2.006-4.389,20.264-44.321,20.264-44.321L85.476,0l11.25,142.907
		l21.443,181.702L63.009,402.316z"/>
	<path fill="#44BACF" d="M42.173,338.815c0,0-11.433-30.693-21.425-44.812c-9.993-14.119-20.774-32.311-16.021-50.829
		s6.008-44.472,7.627-72.381c1.619-27.91,13.732-52.083,12.455-70.175c-1.278-18.093-8.599-29.929-8.574-41.588
		c0.025-11.66,9.582-53.449,10.384-55.204C27.421,2.069,60.876,0,60.876,0h26.808h30.59l20.15,170.071l-6.354,183.317l-7.138,67.831
		L42.173,338.815z"/>
	<path fill="#4BC5D9" d="M86.256,339.871c0,0-25.187-22.657-24.058-46.016c1.13-23.358-0.876-37.54-7.319-48.974
		c-6.444-11.435-6.042-30.883-0.486-51.155c5.555-20.273-9.239-29.69-5.891-45.137c3.349-15.446-0.461-44.246,5.958-58.29
		c6.42-14.041,11.989-40.145,9.97-48.496S72.997,1,72.997,1l27.073-1h34.618l31.879,11.04l-3.546,195.744
		c0,0,4.409,101.759,4.246,103.276c-0.164,1.517-4.932,81.571-4.932,81.571l-80.129-25.494L86.256,339.871z"/>
	<path fill="#4ECADE" d="M107.637,3.979c0,0-7.567-3.979-12.839,10.857c-8.562,24.097-4.164,23.032-2.936,45.876
		c1.228,22.844,8.01,25.415,0.136,47.281c-7.875,21.866-15.423,22.128-8.666,36.359c6.757,14.231,17.5,49.916,13.112,66.477
		c-4.39,16.563-7.425,34.805-4.454,45.713c2.971,10.909,9.516,12.84,10.682,27.697c1.165,14.857-13.192,24.21-6.911,37.163
		c6.281,12.951,17.665,29.829,17.665,29.829l85.76,7.376L195.603,26.44L152.115,6.003L107.637,3.979z"/>
	<polygon fill="#41B4C9" points="-22.403,800 -22.757,527.74 145.581,710.041 323.677,800 	"/>
	<path fill="#44BACF" d="M198.798,800c0,0-65.519-10.226-69.823-28.667c-4.303-18.441-21.125-43.966-38.676-71.429
		c-17.552-27.465-11.378-51.886-27.401-69.552c-16.022-17.665-39.446-28.837-48.079-40.273C6.188,578.645-23.051,548.769-22.757,547
		c0.295-1.77,0-110.943,0-110.943L37,404.004l96.492,68.133l207.864,219.58L465.18,800h36.264H198.798z"/>
	<path fill="#4BC5D9" d="M281.411,800c0,0-29.703-19.139-51.075-29.969c-21.375-10.83-35.055-29.925-39.063-50.133
		c-4.01-20.209-40.546-28.566-45.366-43.912c-4.82-15.346-33.868-43.359-31.515-57.511c2.357-14.151-5.966-40.078-16.213-48.146
		c-10.249-8.069-16.731-45.052-16.731-45.052L56.3,421.219L179,391.631l100.102,142.47l138.68,192.154L503.157,800H281.411z"/>
	<path fill="#4ECADE" d="M109.081,498.521c0,0,33.522,20.126,29.619,43.562c-3.902,23.438,8.841,22.832,28.302,45.16
		c19.46,22.326,34.91,24.446,35.478,46.355c0.565,21.909-14.303,22.614,9.78,36.168c24.082,13.554,72.095,47.907,75.667,64.407
		c3.574,16.503,11.1,34.571,25.15,45.09C327.131,789.785,355.021,800,355.021,800h71.345L803,601L441,501l-282.718-70.183
		L109.081,498.521z"/>
	<polygon fill="#41B4C9" points="1101.683,0 1317.096,0 1317.096,427.503 1201.482,230.077 1041.833,36.365 	"/>
	<path fill="#44BACF" d="M1087.958,65.133c0,0,42.524,33.81,71.513,50.019c28.989,16.211,62.17,36.808,64.623,55.585
		c2.449,18.777,16.653,45.846,31.392,74.916c14.737,29.072,6.169,52.759,20.358,71.929c14.188,19.168,43.842,44.848,43.842,44.848
		v156.993l-40.549,25.96l-89.25-77.378l-185.031-239.134L899.532,37.33L870.093,0L1087.958,65.133z"/>
	<path fill="#4BC5D9" d="M999.479,57.893c0,0,64.746,27.288,77.529,51.65c12.783,24.36,25.906,39.526,46.097,52.425
		c20.193,12.899,31.909,33.258,33.892,53.764c1.983,20.506,37.509,32.451,40.781,48.199c3.271,15.749,29.395,46.509,25.647,60.355
		c-3.751,13.848,1.957,40.473,11.352,49.52c9.397,9.047,12.176,46.49,12.176,46.49l14.689,106.041l-125.031,17.257l-85.46-151.706
		L932.238,186.913c0,0-74.272-107.428-74.923-108.998C856.666,76.346,814.641,0,814.641,0l176,30.884L999.479,57.893z"/>
	<path fill="#4ECADE" d="M1216.798,444.176c0,0-31.358-23.354-25.147-46.288c6.211-22.933-6.529-23.597-23.676-47.746
		c-17.148-24.149-32.312-27.793-30.7-49.65c1.613-21.857,16.477-21.082-6.141-36.96c-22.616-15.878-66.981-54.83-68.898-71.603
		c-1.917-16.776-7.61-35.503-20.548-47.365c-12.938-11.864-27.217-14.801-39.102-30.559c-11.882-15.758,10.691-23.579-10.152-38.048
		c-20.844-14.469-54.38-33.769-54.38-33.769L536.485,273.297l350.281,135.452l274.352,97.912L1216.798,444.176z"/>
</g>
<path fill="#BFB35C" d="M1453.813,761.613V746.33h-15.283v-18.014h-87.881v-33.842h-17.466V518.17h-119.541v-34.389h-18.012
	l0.208-33.018l10.464-4.367h135.368V378.71h-12.008l-5.731-5.732l-0.819-29.748h-11.464l-5.457-5.459v-31.112h-13.1l-6.005-6.005
	v-28.383h-10.37l-6.006-6.004V131.443h-50.217v156.656h-18.013v19.105h-35.479v15.829h-24.562l-9.28-7.097v-32.75l4.913-10.916
	h10.917V261.9l5.458-6.551h12.555v-12.008l4.912-6.551h12.555V113.976h-10.371l-6.004-6.004v-9.28h-13.101l-6.823-6.823V80.68
	h-30.728v-7.561h33.478v-19.65h24.017V3.979H5.964v132.019h30.452l6.55,8.075v15.284h41.484l8.005,5.823v10.916h64.046l6.55,7.277
	v26.929h13.155v46.321l-7.706,7.706h-46.236v14.128l-5.105,5.49H86.592v12.008l-5.459,4.367H-54.235v67.684h12.009l5.73,5.732
	l0.819,29.75h11.462l5.459,5.46v31.111h13.101l6.004,6.004v28.383H10.72l6.005,6.004v134.824h50.218l-0.001-156.656h18.013v-19.104
	h35.479v-15.83h24.563l9.279,7.096v32.752l-4.913,10.914h-10.916v10.371l-5.459,6.549h-12.555v12.01l-4.912,6.551h-12.555
	l0.002,122.812h10.37l6.005,6.004v9.281h13.1l6.823,6.822v11.189h51.036v-18.012h15.283V632.74h18.013l-0.001-87.881h33.843v-17.465
	h165.431V561.1h-15.282v16.738h-16.011v16.74H371.2v36.391h-17.466v33.479h55.312v-10.918l2.91-6.549h30.567v-13.1l3.64-5.096
	h14.557v-12.373h106.984v-12.371l5.821-5.822h12.373v-27.656l5.094-8.006h18.196l5.821,4.365v45.854H599v18.193h-34.934v16.74
	h-34.934v16.738h-63.318v17.467h-8.007v20.379h-69.141v17.467h-71.323v16.01H163.053v16.74h-33.479v19.65h-24.018v31.867h1366.269
	v-42.414H1453.813z M1097.135,98.692h-15.284v15.284h-18.013v87.881h-33.842v17.467H909.295v-24.662h17.467v-33.479h-55.311v10.917
	l-2.913,6.55h-30.567v13.101l-3.637,5.095h-14.557v12.372H712.791v12.373l-5.822,5.822h-12.371v27.655l-5.095,8.007h-18.194
	l-5.824-4.367v-45.852h16.011v-18.193h34.935v-16.74h34.934v-16.739h63.317v-17.467h8.007v-20.378h69.139V105.87h71.324v-16.01
	h133.984V98.692z"/>
<path fill="#E8E088" d="M1449.81,757.609v-15.283h-15.283v-18.014h-87.881v-33.842h-17.466V514.166h-119.541v-34.389h-18.012
	l0.208-33.018l10.464-4.367h135.368v-67.684h-12.008l-5.731-5.732l-0.819-29.748h-11.464l-5.457-5.459v-31.112h-13.1l-6.005-6.005
	v-28.383h-10.37l-6.006-6.004V127.441h-50.217v156.656h-18.013v19.105h-35.479v15.829h-24.562l-9.28-7.097v-32.75l4.913-10.916
	h10.917v-10.371l5.458-6.551h12.555v-12.008l4.912-6.551h12.555V109.974h-10.371l-6.004-6.004v-9.28h-13.101l-6.823-6.823V76.678
	h-30.728v-7.561h33.478v-19.65h24.017V-0.022H1.962v132.019h30.452l6.55,8.075v15.284h41.484l8.005,5.823v10.916H152.5l6.55,7.277
	v26.929h13.155v46.321l-7.706,7.706h-46.236v14.128l-5.105,5.49H82.59v12.008l-5.459,4.367H-58.237v67.684h12.009l5.73,5.732
	l0.819,29.748h11.462l5.459,5.459v31.111h13.101l6.004,6.004v28.383H6.718l6.005,6.004v134.824h50.218L62.94,454.615h18.013v-19.104
	h35.479v-15.83h24.563l9.279,7.096v32.752l-4.913,10.914h-10.916v10.371l-5.459,6.549h-12.555v12.01l-4.912,6.551H98.965
	l0.002,122.812h10.37l6.005,6.004v9.281h13.1l6.823,6.822v11.189h51.036v-18.012h15.283v-15.285h18.013l-0.001-87.881h33.843
	v-17.465H418.87v33.705h-15.282v16.738h-16.011v16.74h-20.379v36.391h-17.466v33.479h55.312v-10.918l2.91-6.549h30.567v-13.1
	l3.64-5.096h14.557v-12.373h106.984v-12.371l5.821-5.822h12.373v-27.656l5.094-8.006h18.196l5.821,4.365v45.854h-16.009v18.193
	h-34.934v16.74h-34.934v16.738h-63.318v17.467h-8.007v20.379h-69.141v17.467h-71.323v16.01H159.051v16.74h-33.479v19.65h-24.018
	v31.867h1366.267v-42.414H1449.81z M1093.131,94.69h-15.284v15.284h-18.013v87.881h-33.842v17.467H905.291V190.66h17.467V157.18
	h-55.311v10.917l-2.913,6.55h-30.567v13.101l-3.637,5.095h-14.557v12.372H708.787v12.373l-5.822,5.822h-12.371v27.655l-5.095,8.007
	h-18.194l-5.824-4.367v-45.852h16.011V190.66h34.935v-16.74h34.934V157.18h63.317v-17.467h8.007v-20.378h69.139v-17.468h71.324
	v-16.01h133.984V94.69z"/>
</svg>
