<?xml version="1.0" encoding="utf-8"?>
<!-- Generator: Adobe Illustrator 21.0.0, SVG Export Plug-In . SVG Version: 6.00 Build 0)  -->
<svg version="1.1" id="Capa_1" xmlns="http://www.w3.org/2000/svg" xmlns:xlink="http://www.w3.org/1999/xlink" x="0px" y="0px"
	 viewBox="0 0 30 30" enable-background="new 0 0 30 30" xml:space="preserve">
<circle fill="#C22F3E" cx="15" cy="14.7" r="12.4"/>
<g>
	<defs>
		<circle id="SVGID_1_" cx="15" cy="14.7" r="12.4"/>
	</defs>
	<clipPath id="SVGID_2_">
		<use xlink:href="#SVGID_1_"  overflow="visible"/>
	</clipPath>
	<g clip-path="url(#SVGID_2_)">
		<circle fill="#FFFFFF" cx="15.1" cy="7.5" r="6.9"/>
	</g>
</g>
<g>
	<defs>
		<circle id="SVGID_3_" cx="15" cy="14.7" r="12.4"/>
	</defs>
	<clipPath id="SVGID_4_">
		<use xlink:href="#SVGID_3_"  overflow="visible"/>
	</clipPath>
	<rect x="0.3" y="16.4" clip-path="url(#SVGID_4_)" fill="#FFFFFF" width="29.7" height="8.1"/>
</g>
<g>
	<path fill="#F94355" d="M9.9,21.8c-0.2-0.5-0.4-1-0.6-1.4c-0.2-0.5-0.3-0.9-0.4-1.2c-0.1,0.6-0.2,1.2-0.3,1.8
		c-0.1,0.6-0.2,1.2-0.3,1.8c0,0.1-0.1,0.2-0.2,0.3c-0.1,0-0.1,0.1-0.2,0.1c-0.1,0-0.2,0-0.2-0.1s-0.1-0.1-0.1-0.2c0-0.1,0-0.3,0-0.5
		c0-0.2,0.1-0.5,0.1-0.8s0.1-0.6,0.1-0.9c0.1-0.3,0.1-0.6,0.2-0.9c0.1-0.3,0.1-0.6,0.2-0.8c0.1-0.2,0.1-0.4,0.1-0.6
		c0.1-0.2,0.2-0.3,0.4-0.3c0.1,0,0.2,0.1,0.3,0.2s0.2,0.3,0.3,0.5c0.1,0.2,0.2,0.5,0.3,0.9c0.1,0.4,0.3,0.8,0.5,1.3
		c0.2-0.5,0.4-0.9,0.5-1.3c0.1-0.4,0.2-0.7,0.3-0.9s0.2-0.4,0.3-0.5c0.1-0.1,0.2-0.2,0.3-0.2c0.1,0,0.2,0,0.3,0.1
		c0.1,0.1,0.1,0.1,0.1,0.3c0,0.1,0.1,0.3,0.1,0.6c0,0.2,0.1,0.5,0.2,0.8c0.1,0.3,0.1,0.6,0.2,0.9c0.1,0.3,0.1,0.6,0.1,0.9
		s0.1,0.6,0.1,0.8c0,0.2,0,0.4,0,0.5c0,0.1,0,0.1-0.1,0.2s-0.1,0.1-0.2,0.1c-0.1,0-0.1,0-0.2-0.1c-0.1,0-0.1-0.1-0.2-0.3
		c-0.1-0.3-0.1-0.6-0.2-0.9s-0.1-0.6-0.1-0.9c0-0.3-0.1-0.6-0.1-0.9c0-0.3-0.1-0.6-0.1-0.9c-0.1,0.2-0.1,0.4-0.2,0.6
		c-0.1,0.2-0.2,0.5-0.3,0.7s-0.2,0.5-0.3,0.7c-0.1,0.2-0.2,0.4-0.3,0.6c0,0.1-0.1,0.1-0.1,0.1s-0.1,0-0.2,0c-0.1,0-0.1,0-0.2,0
		S10,21.9,9.9,21.8z"/>
	<path fill="#F94355" d="M14.1,19.7c0,0.1,0,0.3,0,0.5c0,0.2,0,0.4,0,0.6s0,0.4,0,0.6s0.1,0.4,0.1,0.5c0.1,0.2,0.1,0.3,0.3,0.4
		c0.1,0.1,0.3,0.1,0.4,0.1s0.3,0,0.4-0.1s0.2-0.2,0.3-0.4c0.1-0.2,0.1-0.3,0.1-0.5c0-0.2,0-0.4,0-0.6c0-0.2,0-0.4,0-0.6
		c0-0.2,0-0.3,0-0.5c0-0.3,0.1-0.5,0.4-0.5c0.1,0,0.2,0,0.2,0.1c0,0,0.1,0.1,0.1,0.2c0,0.1,0,0.2,0,0.3s0,0.3,0,0.4c0,0.3,0,0.6,0,1
		c0,0.3-0.1,0.6-0.2,0.9c-0.1,0.3-0.3,0.5-0.5,0.7c-0.2,0.2-0.5,0.3-0.9,0.3c-0.4,0-0.7-0.1-0.9-0.3c-0.2-0.2-0.4-0.4-0.5-0.7
		s-0.2-0.6-0.2-0.9s0-0.7,0-1c0-0.2,0-0.3,0-0.4c0-0.1,0-0.2,0-0.3c0-0.1,0.1-0.2,0.1-0.2c0,0,0.1-0.1,0.2-0.1
		C13.9,19.3,14,19.4,14.1,19.7z"/>
	<path fill="#F94355" d="M17.6,20.1c-0.1,0-0.1,0-0.2,0c-0.1,0-0.1,0-0.2,0c-0.2,0-0.3,0-0.4-0.1s-0.1-0.2-0.1-0.3
		c0-0.1,0-0.2,0.1-0.3s0.2-0.1,0.4-0.1c0.1,0,0.2,0,0.3,0V19c0-0.2,0-0.4,0.1-0.6c0-0.2,0.1-0.3,0.2-0.5c0.1-0.1,0.2-0.2,0.4-0.3
		c0.1-0.1,0.3-0.1,0.5-0.1c0.2,0,0.3,0,0.4,0.1c0.1,0.1,0.1,0.1,0.1,0.3s-0.1,0.2-0.2,0.2s-0.2,0-0.4,0c-0.2,0-0.3,0.1-0.4,0.2
		s-0.1,0.3-0.1,0.5v0.5c0.1,0,0.1,0,0.2,0c0.1,0,0.1,0,0.2,0c0.2,0,0.3,0,0.4,0.1c0.1,0.1,0.1,0.2,0.1,0.3c0,0.2-0.1,0.3-0.2,0.3
		s-0.2,0.1-0.4,0.1c0,0-0.1,0-0.2,0s-0.1,0-0.2,0v2.5c0,0.1,0,0.2,0,0.3c0,0.1,0,0.1-0.1,0.1s-0.1,0.1-0.1,0.1c0,0-0.1,0-0.1,0
		c0,0-0.1,0-0.1,0c0,0-0.1,0-0.1-0.1s-0.1-0.1-0.1-0.2c0-0.1,0-0.1,0-0.2V20.1z"/>
	<path fill="#F94355" d="M20.9,19.2c0.1,0,0.2,0,0.4,0c0.2,0,0.3,0,0.4,0.1s0.3,0.1,0.4,0.2c0.1,0.1,0.2,0.2,0.2,0.3
		c0,0.1,0,0.1-0.1,0.2c0,0.1-0.1,0.1-0.2,0.1c-0.1,0-0.1,0-0.2,0c-0.1,0-0.2,0-0.3-0.1c-0.1,0-0.2,0-0.3-0.1c-0.1,0-0.2,0-0.4,0
		c-0.2,0-0.4,0-0.5,0.1c-0.1,0.1-0.2,0.2-0.2,0.3c0,0.1,0,0.1,0.1,0.2s0.1,0.1,0.2,0.1c0.1,0,0.2,0.1,0.3,0.1c0.1,0,0.2,0.1,0.4,0.1
		c0.2,0,0.3,0.1,0.5,0.1c0.2,0,0.3,0.1,0.4,0.2c0.1,0.1,0.2,0.2,0.3,0.3c0.1,0.1,0.1,0.3,0.1,0.5c0,0.4-0.1,0.7-0.4,0.9
		c-0.3,0.2-0.7,0.3-1.2,0.3c-0.1,0-0.3,0-0.4,0s-0.3,0-0.5-0.1s-0.3-0.1-0.4-0.2s-0.2-0.2-0.2-0.3c0-0.1,0-0.2,0.1-0.2
		c0-0.1,0.1-0.1,0.2-0.1c0.1,0,0.1,0,0.2,0.1c0.1,0,0.1,0.1,0.2,0.1c0.1,0,0.2,0.1,0.3,0.1c0.1,0,0.3,0.1,0.4,0.1c0.1,0,0.1,0,0.3,0
		c0.1,0,0.2,0,0.3-0.1c0.1,0,0.2-0.1,0.3-0.1s0.1-0.1,0.1-0.3c0-0.1,0-0.2-0.1-0.2c0-0.1-0.1-0.1-0.2-0.2c-0.1,0-0.2-0.1-0.3-0.1
		c-0.1,0-0.2-0.1-0.4-0.1c-0.1,0-0.3-0.1-0.4-0.1c-0.1,0-0.3-0.1-0.4-0.2c-0.1-0.1-0.2-0.2-0.3-0.3c-0.1-0.1-0.1-0.3-0.1-0.4
		c0-0.2,0-0.3,0.1-0.5c0.1-0.1,0.2-0.3,0.3-0.4s0.3-0.2,0.5-0.3S20.7,19.2,20.9,19.2z"/>
</g>
<g>
	<path fill="#06A6A4" d="M12.1,9.1c0,0,0-0.1,0-0.1c0-0.2,0.1-0.4,0.3-0.6c0.1-0.1,0.2-0.3,0.2-0.4c0-0.1,0.1,0,0.1,0
		c0.2,0.2,0.5,0.3,0.7,0.4c0.1,0,0.2,0,0.2,0.1c0.2,0.5,0.4,1,0.6,1.4c0,0,0.1,0.1,0,0.1c0,0-0.1,0-0.1,0c-0.2,0-0.3,0.2-0.3,0.4
		c0,0.2,0.2,0.4,0.4,0.4c0.2,0,0.3-0.1,0.3-0.3c0-0.1,0-0.1,0-0.2c0,0,0-0.1,0-0.1c0.1,0,0.1,0,0.1,0.1c0,0.2,0.1,0.3,0.3,0.5
		c0.1,0.1,0.1,0.1,0.1,0.2c0,0.2,0,0.2,0.2,0.2c0.4,0.4,0.9,0.7,1.4,0.8c0.1,0,0.2,0.1,0.3,0.2c0,0,0,0,0,0c-0.1,0-0.1,0.1-0.2,0.1
		c-0.1,0-0.2,0-0.2,0c-0.2,0-0.4,0-0.6,0.1c-0.1,0-0.1,0.1-0.2,0.1c-0.3-0.1-0.6-0.1-0.9-0.1c0,0-0.1,0-0.1,0c-0.1,0-0.1,0-0.2,0
		c-0.3-0.1-0.5-0.2-0.8-0.2c-0.2,0-0.3-0.2-0.5-0.2c-0.1,0-0.1-0.1-0.2-0.1c-0.4-0.1-0.7-0.5-0.9-0.8c-0.2-0.3-0.2-0.5-0.3-0.8
		c0-0.1,0-0.1,0-0.2c0-0.1,0-0.2,0-0.3C11.9,9.7,11.9,9.4,12.1,9.1z"/>
	<path fill="#C22F3E" d="M13.6,8.6c-0.1-0.1-0.2-0.1-0.3-0.1c-0.2-0.1-0.4-0.2-0.6-0.4c0,0-0.1-0.1-0.1,0c0-0.1-0.1-0.2-0.1-0.3
		c0-0.1,0-0.1,0-0.2c0-0.1,0.1-0.1,0.2-0.1c0.1,0,0.2,0,0.4,0c0.1,0,0.1,0,0.2,0c-0.1,0.1-0.2,0-0.2,0c0.4,0,0.7,0.1,1,0.3
		c-0.1-0.1-0.2-0.1-0.2-0.2c0-0.1-0.1-0.2-0.1-0.3c0-0.1,0-0.2-0.1-0.2c0,0,0,0,0-0.1c-0.1-0.1-0.1-0.3-0.1-0.4
		c0-0.2,0.3-0.3,0.5-0.2c0,0,0,0,0,0c0,0,0,0,0,0c0.4,0.2,0.7,0.6,1,1c0-0.1,0-0.1,0-0.2c0-0.1,0-0.1-0.1-0.2c0,0,0-0.1,0-0.1
		c0,0,0-0.1,0-0.1c0-0.1,0.1-0.2,0.1-0.3c0,0,0-0.1,0-0.1C14.9,6.2,15,6,15.2,5.9c0,0,0.1-0.1,0.1-0.1c0.2,0.1,0.3,0.2,0.3,0.4
		c0.1,0.2,0.1,0.3,0.1,0.5c0,0.2,0.1,0.3,0.1,0.5C15.9,7.1,15.9,7,16,6.9c0,0,0-0.1,0.1-0.1c0.2-0.2,0.5-0.4,0.8-0.5
		c0.4,0.1,0.5,0.3,0.3,0.7c0,0.1-0.1,0.2-0.1,0.4c0,0,0,0,0,0c0,0-0.1,0.1-0.1,0.1c0,0,0.1,0,0.1,0c0.3-0.1,0.6,0,0.9,0
		c0.2,0,0.3,0.2,0.2,0.4c0,0.1-0.1,0.1-0.1,0.2c0,0.1-0.1,0.1-0.2,0.2c-0.3,0.2-0.6,0.3-1,0.4c0,0,0,0-0.1,0c-0.1,0-0.1,0-0.2,0
		c-0.1-0.1,0-0.1,0-0.1c0.1-0.1,0.1-0.3,0.1-0.4c0-0.1,0-0.2-0.1-0.2c-0.2,0-0.3-0.1-0.3-0.2c0-0.1-0.1-0.1-0.1-0.1c0,0-0.1,0-0.1,0
		c-0.1,0-0.2,0-0.3-0.1c0-0.1-0.1-0.1-0.2-0.1c-0.1,0-0.2,0.1-0.3,0.1c-0.1,0-0.2,0-0.3-0.1c-0.1,0-0.1-0.1-0.2,0
		c-0.1,0.1-0.1,0.2-0.2,0.3c-0.1,0-0.3,0-0.4,0c-0.1,0.2,0,0.4,0,0.6c0,0.1,0.1,0.1,0.1,0.1c0,0,0,0.1,0,0.1
		C14.1,8.7,13.9,8.7,13.6,8.6z"/>
	<path fill="#373E5B" d="M16.8,6.4c-0.3,0.1-0.5,0.3-0.7,0.5c-0.1,0-0.1,0-0.2-0.1c-0.1-0.3-0.1-0.6-0.3-0.8c0,0,0-0.1,0-0.1
		c0-0.5,0-1,0-1.5c0-0.7,0-1.3-0.1-2c0-0.1,0-0.2-0.1-0.3c0-0.2,0-0.2,0.1-0.2c0,0,0,0,0,0c0.2,0.1,0.2,0.2,0.3,0.4
		C16,2.6,16,3,16.1,3.4c0.1,0.5,0.1,1,0.1,1.5c0,0.4,0,0.7-0.1,1.1c0,0.1-0.1,0.3-0.1,0.4c0-0.1,0.1-0.3,0.1-0.4
		c0.1-0.4,0.1-0.8,0.1-1.2c0-0.1,0-0.1,0-0.1c0.3-0.4,0.7-0.8,1.1-1.1c0.3-0.2,0.6-0.5,1-0.6c0,0.1,0,0.1,0,0.1
		c-0.1,0.1-0.2,0.1-0.2,0.2c-0.4,0.4-0.6,0.9-0.6,1.4c0,0.4,0,0.7,0.1,1.1c0,0,0,0.1,0,0.1c0,0.1,0.1,0.1,0.2,0.1
		c0,0,0.1-0.1,0.1-0.1c0,0,0.1,0,0.1,0c-0.2,0.2-0.4,0.5-0.6,0.7C17.2,6.4,17,6.4,16.8,6.4z"/>
	<path fill="#262F4E" d="M13.8,6.3c-0.2-0.1-0.4,0-0.4,0.2c0,0.1,0,0.3,0,0.4c-0.8-1-1.5-2-1.8-3.2c0-0.1-0.1-0.3,0-0.4
		c0-0.3,0.2-0.4,0.4-0.3c0,0,0.1,0,0.1,0.1c0.1,0.1,0.3,0.2,0.4,0.3c0.6,0.6,1.1,1.3,1.6,2c0.2,0.3,0.4,0.6,0.5,0.9
		c0.1,0.2,0,0.2-0.1,0.3c-0.1,0-0.1,0-0.2,0C14.2,6.5,14,6.4,13.8,6.3z"/>
	<path fill="#262F4E" d="M15.5,1.9c-0.1,0-0.1,0.1-0.1,0.2c0.1,0.3,0.1,0.6,0.1,0.9c0,0.6,0,1.3,0.1,1.9c0,0.4,0,0.7,0,1.1
		c-0.1,0.1-0.2-0.1-0.3,0c-0.1,0-0.2,0.1-0.3,0.2c-0.1,0.1-0.1,0.1-0.1,0.2c-0.1,0-0.1,0-0.1-0.1c-0.2-0.3-0.3-0.6-0.5-0.9
		c0-0.1-0.1-0.1,0-0.2c0-0.9,0.2-1.8,0.5-2.6c0.1-0.2,0.2-0.4,0.4-0.6C15.3,1.9,15.4,1.8,15.5,1.9z"/>
	<path fill="#7885B9" d="M17.9,5.8c-0.1,0-0.1,0.1-0.2,0.1C17.6,6,17.6,6,17.5,5.9c0-0.1-0.1-0.3-0.1-0.4c-0.1-0.7,0-1.3,0.4-1.9
		c0.1-0.2,0.3-0.4,0.5-0.5c0,0,0.1,0,0-0.1c0.2-0.1,0.3-0.1,0.5-0.1c0.2,0,0.3,0.1,0.3,0.3c0,0.2,0,0.4,0,0.6
		c-0.2,0.6-0.5,1.2-0.9,1.7C18.2,5.5,18.1,5.7,17.9,5.8z"/>
	<path fill="#16E8E8" d="M16.8,8.7c0.1-0.1,0.2-0.1,0.3-0.1c0.4-0.1,0.7-0.3,1-0.5c0.1,0,0.1,0.2,0.2,0.2c0,0,0,0,0,0
		c0.1,0.1,0.2,0.3,0.2,0.4c0,0.1,0,0.1,0.1,0.2c0,0.1,0.1,0.1,0.1,0.2c0,0.1,0,0.1,0,0.2c0,0,0,0.1,0,0.1c0,0.1,0,0.1,0,0.2
		c0.1,0.2,0,0.4,0,0.6c0,0.1,0,0.2-0.1,0.3c0,0,0,0-0.1,0c0,0,0-0.1,0,0c0,0,0,0,0,0c0,0.1-0.1,0.3-0.3,0.3c0,0-0.1,0-0.1,0.1
		C18,11,18,11,17.9,10.9c-0.1,0-0.1,0-0.2,0c-0.1,0-0.3,0-0.4-0.1c-0.1-0.1-0.2-0.1-0.3-0.2c-0.1,0-0.2-0.1-0.2-0.2
		c-0.1-0.1-0.1-0.2-0.2-0.2c0,0,0,0,0,0c0,0,0-0.1,0-0.1c0,0,0-0.1,0-0.1c0,0,0.1,0,0.1,0c0.1,0.1,0.1,0.1,0.2,0.1
		c0.1,0.1,0.2,0.1,0.3,0c-0.1,0-0.1,0-0.1,0c0.1,0,0.1,0,0.2,0c0.1,0,0.2,0,0.3-0.1c0-0.1,0.1-0.2,0.1-0.3c0.1-0.3,0-0.5-0.2-0.7
		c-0.1-0.1-0.3-0.2-0.4-0.1c0,0-0.1,0-0.1,0C16.7,8.9,16.8,8.8,16.8,8.7z"/>
	<path fill="#FC4456" d="M10.3,9.1c0.4,0.2,0.9,0.4,1.3,0.6c0,0,0.1,0,0.1,0c0-0.1,0.1,0,0.1,0c0,0.1,0,0.1,0,0.2
		c0,0.2,0,0.5,0.1,0.7c0,0.1,0,0.1,0,0.2c0,0.1,0,0.1-0.1,0.1c-0.2,0-0.3-0.1-0.5-0.2c-0.3-0.1-0.6-0.3-0.9-0.5c0,0-0.1,0-0.1,0
		C10.2,10.1,10.1,10,10,10c0.5,0.1,0.9,0.3,1.4,0.4c-0.3-0.3-0.6-0.5-0.8-0.7c0.1,0,0.1,0,0.1,0c0.1,0.1,0.2,0.2,0.4,0.3
		c0.1,0.1,0.1,0.1,0.2,0.1c-0.3-0.2-0.6-0.4-0.8-0.6c0,0-0.1,0-0.1,0C10.4,9.3,10.3,9.2,10.3,9.1C10.2,9.1,10.2,9.1,10.3,9.1z"/>
	<path fill="#FB5567" d="M11.8,10.9C11.9,10.9,11.9,10.8,11.8,10.9c0-0.3,0-0.5,0-0.8c0-0.1,0-0.3,0-0.4c0-0.1,0-0.1,0-0.2
		c0-0.1,0.1-0.2,0.1-0.3c0-0.1,0.1-0.1,0.2-0.1c0,0,0.1,0,0.1,0.1C12,9.4,12,9.7,12,10c0,0.1,0,0.1,0,0.2c0,0.1,0,0.1,0,0.2
		c0.1,0.3,0.2,0.7,0.4,1c0.1,0.2,0.3,0.4,0.6,0.5c0.2,0.1,0.4,0.2,0.6,0.3c0.1,0.1,0.2,0.1,0.4,0.1c0.2,0,0.5,0.1,0.7,0.2
		c0.1,0,0.1,0,0.2,0c0,0,0,0.1,0,0.1c0,0-0.1,0-0.1,0c-0.2,0-0.4-0.1-0.6-0.1c-0.1,0-0.2,0-0.2-0.1c-0.1,0-0.1,0-0.1-0.1
		c0,0,0,0.1-0.1,0.1c0,0,0,0,0-0.1c-0.2-0.1-0.5-0.3-0.7-0.4c-0.1,0-0.1,0-0.2,0c-0.1,0-0.1,0-0.2,0c-0.1,0-0.2,0-0.2-0.1
		c0-0.1,0.1,0,0.1-0.1c0,0,0,0,0,0c-0.1-0.2-0.3-0.4-0.5-0.4c0,0,0,0-0.1,0c0-0.1,0.1,0,0.1-0.1c0,0,0.1,0,0-0.1
		c-0.1-0.1-0.2-0.3-0.3-0.5c0,0,0-0.1,0-0.1c0,0,0.1,0,0.1,0C12,10.9,11.9,11,11.8,10.9z"/>
	<path fill="#FC4455" d="M12,11.6c0.1,0,0.3,0.1,0.4,0.1c0.1,0.1,0.1,0.2,0.3,0.3c0,0,0,0.1-0.1,0.1c-0.1,0-0.1,0-0.2,0
		c0.1,0.1,0.3,0,0.4,0c0.1,0,0.1,0,0.1,0c0.2,0.1,0.4,0.2,0.6,0.3c0.1,0,0.1,0.1,0.1,0.1c-0.5,0.1-1,0-1.5-0.2
		c0.2-0.1,0.3-0.1,0.5-0.2C12,12.1,11.5,12,11,11.7c0.3,0,0.6,0,0.9,0c-0.3-0.1-0.5-0.2-0.7-0.3c0-0.1,0.1-0.1,0.1,0
		C11.5,11.4,11.8,11.5,12,11.6C12,11.6,12,11.6,12,11.6z"/>
	<path fill="#FC4456" d="M11.9,11c0.1,0.2,0.2,0.4,0.3,0.5c-0.1,0.1-0.1,0-0.2,0c-0.4-0.1-0.8-0.2-1.2-0.4c0,0-0.1,0-0.1,0
		c-0.1-0.1-0.3-0.2-0.4-0.2c0.4,0,0.8,0.1,1.2,0.1c-0.3-0.2-0.5-0.3-0.7-0.5c0-0.1,0.1,0,0.1,0c0.3,0.1,0.6,0.3,0.9,0.4
		C11.8,10.9,11.9,10.9,11.9,11z"/>
	<path fill="#FC4556" d="M12,9.1c-0.1,0-0.2,0.1-0.1,0.2c0,0,0,0.1-0.1,0.2c0,0.1,0,0.1,0,0.2c0,0,0,0-0.1,0c-0.4-0.4-0.7-0.9-1-1.4
		C11.1,8.6,11.5,8.8,12,9.1z"/>
	<path fill="#7784B8" d="M16.1,6c0-0.3,0.1-0.6,0.1-0.9c0-0.2,0-0.5,0-0.7c0-0.2,0-0.5,0-0.7C16,3.2,16,2.7,15.8,2.2
		c-0.1-0.1-0.1-0.3-0.2-0.4c0.2,0,0.3,0.2,0.3,0.3c0.2,0.4,0.3,0.8,0.3,1.2c0.1,0.4,0.1,0.9,0.1,1.4C16.2,5.2,16.2,5.6,16.1,6
		C16.1,6.1,16.1,6.1,16.1,6z"/>
	<path fill="#353D5C" d="M14.6,6.3c-0.3-0.7-0.8-1.3-1.2-1.9c-0.2-0.3-0.5-0.6-0.8-0.9c-0.1-0.1-0.2-0.2-0.3-0.3
		c0,0-0.1-0.1-0.1-0.1c0.1,0,0.2,0.1,0.2,0.1c0.4,0.3,0.8,0.7,1.1,1.1c0.4,0.6,0.8,1.1,1.2,1.8c0,0.1,0.1,0.1,0.1,0.2
		C14.7,6.3,14.7,6.3,14.6,6.3z"/>
	<path fill="#FA5D6F" d="M18.5,10.6c0.1-0.3,0.1-0.6,0.1-0.9c0.1,0,0.1,0,0.2-0.1c0.1,0,0.1,0.1,0.1,0.2c0,0.1,0,0.2,0,0.3
		c-0.1,0-0.1,0.1-0.2,0.1c-0.1,0.1,0,0,0,0c0.1,0,0.1,0.1,0.1,0.2c0,0.1,0,0.2-0.1,0.3c0,0.1-0.1,0.1-0.1,0.1c0.1,0.1,0.2,0,0.3,0
		c0,0.1-0.1,0.1-0.2,0.1c-0.1,0-0.2,0-0.3,0.2c0,0.1,0,0.1-0.1,0.2c-0.1,0-0.2,0.1-0.3,0c0,0,0-0.1,0-0.1
		C18.3,11.1,18.4,10.9,18.5,10.6C18.5,10.6,18.5,10.6,18.5,10.6z"/>
	<path fill="#FB4455" d="M18.7,10.8c0-0.1,0-0.2,0-0.3c0-0.1,0-0.1,0-0.2c0.3-0.1,0.7-0.2,1-0.2c0,0,0,0,0,0.1
		c-0.1,0.1-0.1,0.2-0.1,0.2c-0.1,0.1-0.3,0.2-0.4,0.2c-0.1,0.1-0.3,0.1-0.4,0.2C18.8,10.8,18.8,10.9,18.7,10.8z"/>
	<path fill="#FC5364" d="M14.8,12.6c0.3,0,0.6,0,0.9,0.1c0,0,0.1,0,0.1,0.1c-0.1,0.2-0.2,0.3-0.4,0.3c-0.1,0-0.2,0-0.3,0
		C15,13,14.9,12.8,14.8,12.6z"/>
	<path fill="#FB4456" d="M18.9,10.1c-0.1,0,0-0.1-0.1-0.2c0-0.1,0-0.3-0.1-0.4c0.1-0.1,0.3-0.1,0.4-0.2c0.2,0,0.5-0.1,0.7-0.2
		c0,0,0.1-0.1,0.1,0C19.6,9.6,19.3,9.9,18.9,10.1z"/>
	<path fill="#FB4456" d="M11.9,8.8c-0.2-0.3-0.3-0.6-0.5-1c0-0.1,0.1-0.1,0.1,0C11.8,8,12,8.1,12.2,8.3c-0.1,0.1-0.2,0.3-0.2,0.4
		C12,8.8,12,8.8,11.9,8.8z"/>
	<path fill="#FB5063" d="M15.9,12.6c0.2-0.1,0.4-0.1,0.6-0.1c0.1,0,0.2,0,0.3,0c0,0,0.1,0,0,0.1c0.1,0.1,0.1,0.2,0.2,0.3
		c0,0,0,0.1,0,0.1c-0.3,0-0.6-0.1-0.9-0.2C16,12.7,15.9,12.7,15.9,12.6z"/>
	<path fill="#FA4557" d="M18.5,11.4c0-0.1,0.1-0.3,0.1-0.4c0,0,0.1,0,0.1,0c0.1,0,0.2,0,0.3,0c0.3,0,0.6-0.1,0.9-0.1
		c0,0.1,0,0.1-0.1,0.1c-0.4,0.1-0.8,0.4-1.2,0.5C18.6,11.4,18.5,11.4,18.5,11.4z"/>
	<path fill="#FB4658" d="M13.7,12.7c0-0.1,0-0.2,0.2-0.3c-0.1,0.2,0,0.2,0.1,0.2c0.3,0.1,0.5,0.1,0.8,0.2c-0.3,0.2-0.7,0.2-1,0.1
		C13.5,12.9,13.7,12.8,13.7,12.7z"/>
	<path fill="#7781B0" d="M14.8,6.3c-0.2-0.4-0.4-0.8-0.6-1.1c-0.3-0.5-0.6-0.9-1-1.3c-0.2-0.2-0.5-0.4-0.7-0.7
		c0.1,0,0.2,0.1,0.3,0.2c0.5,0.5,1,1,1.4,1.6c0.1,0.1,0.1,0.2,0.2,0.2c0.1,0.2,0.2,0.3,0.3,0.5c0.1,0.2,0.2,0.4,0.3,0.7
		c0,0,0,0.1-0.1,0.1C14.8,6.4,14.8,6.3,14.8,6.3z"/>
	<path fill="#FA4557" d="M19.6,8.4c-0.2,0.3-0.5,0.7-0.7,0.9c-0.1-0.1-0.1-0.2-0.2-0.4c0-0.1,0.1-0.1,0.1-0.1
		c0.3-0.1,0.5-0.3,0.7-0.4C19.5,8.4,19.5,8.4,19.6,8.4z"/>
	<path fill="#F94457" d="M18.2,8c0-0.3-0.2-0.3-0.4-0.4c-0.3,0-0.6,0-0.9,0.1c0-0.1,0.1-0.2,0.1-0.2c0.1,0,0.1,0,0.2,0
		c0.1,0,0.2,0,0.2,0c0.1,0,0.2,0,0.3,0c0.1,0,0.1,0,0.1-0.1C18,7.3,18,7.3,18.1,7.2c0,0.1,0,0.1,0,0.1c0,0.1-0.1,0.2,0.1,0.3
		C18.3,7.6,18.3,7.8,18.2,8z"/>
	<path fill="#C7303F" d="M18.5,11.4c0.4-0.1,0.8-0.3,1.2-0.5c0.1,0,0.2,0,0.2-0.1c0,0,0.1,0,0.1,0c0,0,0,0.1-0.1,0.1
		c-0.5,0.3-0.9,0.5-1.5,0.6c-0.1,0-0.1,0-0.2,0.1c0,0,0,0,0,0c-0.1,0-0.1,0-0.1-0.1c0,0,0,0,0,0C18.3,11.5,18.4,11.4,18.5,11.4z"/>
	<path fill="#FC4457" d="M18.3,11.6c0.1,0,0.3,0.1,0.4,0.1c0.1,0,0.1,0,0.2,0c0.1,0,0.3,0,0.4,0c0,0,0.1,0,0.1,0c0,0,0,0-0.1,0l0,0
		c-0.4,0.1-0.7,0.2-1.1,0.2c0,0-0.1,0-0.1,0c0,0-0.1-0.1,0-0.1C18.1,11.8,18.1,11.6,18.3,11.6L18.3,11.6z"/>
	<path fill="#F84C5E" d="M18.4,8.8c-0.1-0.1-0.1-0.3-0.2-0.4c0.2-0.1,0.4-0.2,0.5-0.4c0,0,0.1-0.1,0.1-0.1c0,0,0.1,0,0.1,0
		C18.8,8.2,18.7,8.5,18.4,8.8z"/>
	<path fill="#C5313F" d="M18,11.9c0.3,0,0.6-0.1,0.9-0.1c0.1,0,0.2,0,0.3,0c-0.2,0.1-0.4,0.2-0.7,0.2c-0.2,0.1-0.4,0.1-0.6,0.1
		c-0.1,0-0.2,0.1-0.4,0c0-0.1,0-0.1,0.1-0.1C17.8,11.9,17.9,11.8,18,11.9z"/>
	<path fill="#FA4657" d="M17.7,12.1c0.2,0.1,0.4,0.2,0.6,0.2c-0.1,0.1-0.2,0.1-0.3,0.1c-0.2,0-0.5,0-0.7,0c0,0-0.1-0.1,0-0.1
		C17.4,12.2,17.6,12.1,17.7,12.1z"/>
	<path fill="#C93444" d="M17.3,12.4c0.3,0,0.7,0.1,1,0c0,0,0,0,0.1,0c-0.2,0.1-0.5,0.1-0.7,0.1c-0.2,0-0.4,0-0.6,0
		c-0.1,0-0.2,0-0.3,0c0,0,0,0,0-0.1c0-0.1,0.1-0.1,0.1-0.1C17.1,12.3,17.2,12.3,17.3,12.4z"/>
	<path fill="#FA7C8F" d="M11.9,11c-0.2,0-0.3-0.1-0.5-0.1c-0.2-0.1-0.4-0.2-0.6-0.3c0,0-0.1-0.1-0.1,0c-0.1-0.1-0.3-0.2-0.4-0.3
		c0.1,0,0.2,0.1,0.3,0.2c0.4,0.2,0.7,0.4,1.1,0.5c0.1,0.1,0.2,0,0.3,0.1C12,11,12,11,11.9,11z"/>
	<path fill="#F96072" d="M17.3,12.4c-0.1,0-0.2,0-0.4-0.1c0,0,0,0,0,0c0.1-0.2,0.5-0.3,0.7-0.3c0.1,0.1,0.2,0,0.4,0
		c-0.1,0-0.2,0-0.2,0.1C17.6,12.2,17.4,12.2,17.3,12.4z"/>
	<path fill="#F84356" d="M16.8,6.4c0.2-0.1,0.4,0,0.5,0.1c0,0.3-0.1,0.5-0.2,0.8c0,0.1,0,0.2-0.1,0.2c-0.1,0,0-0.1,0-0.1
		c0.1-0.2,0.2-0.4,0.2-0.6c0-0.1-0.1-0.2-0.2-0.3C16.9,6.4,16.9,6.4,16.8,6.4z"/>
	<path fill="#F94457" d="M13.7,7.5c0.1,0.1,0.2,0.2,0.3,0.3c-0.4-0.1-0.8-0.3-1.2-0.3c0.1,0,0.2,0,0.3,0c0,0,0.1,0,0.1,0
		C13.4,7.4,13.6,7.4,13.7,7.5z"/>
	<path fill="#C32E3D" d="M19.7,10.4c-0.1-0.1-0.1-0.2,0-0.2c0,0,0,0,0-0.1c0.2-0.1,0.4-0.1,0.6-0.2C20.1,10.1,19.9,10.3,19.7,10.4z"
		/>
	<path fill="#C53847" d="M15.9,12.6c0.3,0.2,0.5,0.3,0.9,0.3c0.1,0,0.1,0,0.2,0c-0.3,0.1-0.7,0-1-0.1c0,0-0.1,0-0.1-0.1
		c0,0-0.1,0-0.1-0.1C15.8,12.6,15.9,12.6,15.9,12.6z"/>
	<path fill="#F87789" d="M10.7,11.1c0.2,0,0.3,0.1,0.4,0.1c0.4,0.1,0.7,0.2,1.1,0.3c0,0,0.1,0,0.1,0c0,0,0,0,0,0c-0.1,0-0.1,0-0.2,0
		c-0.3-0.1-0.5-0.1-0.8-0.3c0,0-0.1,0-0.1,0C11,11.3,10.8,11.2,10.7,11.1z"/>
	<path fill="#C42E3D" d="M20,9.3c-0.1,0-0.1,0-0.1,0c-0.2,0.1-0.4,0.2-0.7,0.2c0.3-0.2,0.7-0.3,1-0.5C20.1,9.1,20,9.2,20,9.3z"/>
	<path fill="#C42E3D" d="M19.6,8.4C19.5,8.4,19.5,8.4,19.6,8.4C19.3,8.7,19,8.8,18.7,9c0,0-0.1,0.1-0.1,0.1c0,0-0.1,0,0-0.1
		c0.4-0.3,0.8-0.5,1.2-0.8C19.7,8.3,19.6,8.4,19.6,8.4z"/>
	<path fill="#F6596A" d="M11.9,8.8C12,8.8,12,8.7,12,8.7c0-0.1,0.1-0.2,0.2-0.3c0,0,0.1,0.1,0.1,0.1c-0.1,0.2-0.2,0.4-0.3,0.6
		C12,9,12,8.9,11.9,8.8z"/>
	<path fill="#FA5F72" d="M18.5,9c0.1,0.1,0.1,0,0.2,0c0,0.1,0.1,0.3,0.1,0.4c-0.1,0.1-0.1,0.1-0.2,0.2c0,0,0-0.1,0-0.1
		c0-0.1,0-0.1-0.1-0.2C18.6,9.1,18.5,9.1,18.5,9C18.5,9,18.5,9,18.5,9z"/>
	<path fill="#F97A8C" d="M10.4,9.3C10.4,9.3,10.5,9.3,10.4,9.3c0.4,0.2,0.7,0.4,0.9,0.6c0,0,0,0,0,0.1C11.1,10,11,9.8,10.8,9.6
		c0,0-0.1-0.1-0.1,0C10.5,9.5,10.5,9.4,10.4,9.3z"/>
	<path fill="#C33040" d="M19,7.9c-0.1,0-0.1,0-0.1,0.1c-0.2,0.2-0.3,0.4-0.6,0.5c0,0,0,0,0,0c0.3-0.2,0.5-0.5,0.8-0.7
		C19.1,7.8,19,7.8,19,7.9z"/>
	<path fill="#1AA9A7" d="M13.7,7.5C13.7,7.5,13.7,7.5,13.7,7.5c-0.2,0-0.3,0-0.4-0.1c0.1,0,0.1-0.1,0.2-0.1c0,0,0-0.1,0.1,0
		C13.6,7.3,13.7,7.4,13.7,7.5z"/>
	<path fill="#27E3E5" d="M17,7.4c0.1,0,0.1-0.1,0.1-0.2c0.1,0.1,0.2,0.1,0.3,0.2c-0.1,0-0.2,0-0.3,0.1C17.1,7.6,17,7.6,17,7.4
		C17,7.5,17,7.4,17,7.4z"/>
	<path fill="#C33747" d="M14.8,12.6c0.1,0.2,0.2,0.4,0.4,0.5c0,0,0,0,0,0c-0.2,0-0.2-0.2-0.4-0.3C14.8,12.7,14.8,12.7,14.8,12.6
		C14.8,12.6,14.8,12.6,14.8,12.6z"/>
	<path fill="#F1596A" d="M12.6,7.4c-0.1,0-0.1,0.1-0.2,0.1c0-0.1,0-0.3-0.1-0.4C12.5,7.2,12.5,7.3,12.6,7.4z"/>
	<path fill="#BC3B4A" d="M18.7,10.8c0.2,0,0.4-0.2,0.5-0.2C19.1,10.8,18.9,10.8,18.7,10.8c-0.1,0.1-0.1,0.1-0.1,0.1
		C18.6,10.9,18.7,10.9,18.7,10.8z"/>
	<path fill="#C5313F" d="M19.3,11.7C19.3,11.7,19.3,11.7,19.3,11.7c-0.2-0.1-0.3-0.1-0.4-0.1c0,0,0,0,0,0c0,0,0,0,0,0
		c0.2,0,0.4,0,0.6,0C19.4,11.7,19.3,11.8,19.3,11.7z"/>
	<path fill="#E64A5C" d="M13.6,7.2c-0.1,0-0.1,0.1-0.1,0c0-0.1,0-0.2,0-0.3C13.5,7,13.5,7.1,13.6,7.2z"/>
	<path fill="#8C1B29" d="M17.2,12.5c0.2,0,0.4,0,0.6,0C17.5,12.6,17.3,12.6,17.2,12.5z"/>
	<path fill="#F26C7A" d="M11.6,7.8c0,0-0.1,0-0.1,0c0-0.1-0.1-0.1-0.1-0.2C11.5,7.7,11.5,7.7,11.6,7.8z"/>
	<path fill="#E48391" d="M10.3,9.1C10.2,9.1,10.3,9.2,10.3,9.1c-0.1,0.1-0.1,0-0.2-0.1C10.2,9,10.2,9.1,10.3,9.1z"/>
	<path fill="#A53747" d="M15.2,13C15.2,13,15.2,13,15.2,13c0.1,0,0.2,0,0.3,0C15.4,13.1,15.3,13.1,15.2,13z"/>
	<path fill="#0DE2E1" d="M17.6,12c-0.3,0-0.5,0.2-0.7,0.3c-0.1-0.1-0.3-0.1-0.5-0.2c-0.5-0.1-0.8-0.4-1.2-0.7c0,0,0,0,0-0.1
		c0,0,0,0,0.1,0c0.2,0.1,0.2,0.1,0.3,0c-0.1,0.1-0.2,0-0.3,0c-0.2,0.1-0.2,0.1-0.3-0.1c-0.1-0.1-0.2-0.2-0.3-0.3
		c-0.1-0.1-0.2-0.2-0.2-0.4c0-0.1,0-0.1-0.1-0.1c0,0,0,0-0.1,0c0-0.1-0.1-0.1-0.1-0.2c-0.2-0.3-0.3-0.6-0.4-0.9
		c-0.1-0.2-0.1-0.4-0.2-0.5c0,0,0-0.1,0-0.1c0.2,0.1,0.5,0.1,0.7,0.1c0.2,0,0.3,0.1,0.5,0.1c0.1,0,0.1,0.1,0.2,0.1
		c0.2,0,0.5,0,0.7,0c0.1-0.1,0.1-0.1,0.2,0c0.2,0.1,0.4,0.1,0.6,0c0,0,0,0,0,0c0.1,0,0.2,0,0.2,0c0,0,0.1,0,0.1,0
		c-0.1,0-0.1,0.1-0.1,0.2C16.8,9,16.7,9,16.7,9c-0.3,0.3-0.3,0.8,0,1c0.1,0.1,0.2,0.1,0.2,0.2c0,0,0.1,0,0.2,0
		c-0.2,0.1-0.2,0.1-0.3,0c-0.1-0.1-0.2-0.1-0.2-0.2c0,0,0,0-0.1,0c0,0,0,0,0,0.1c0,0,0,0.1,0,0.1c0,0-0.1,0-0.1,0
		c-0.2,0-0.4,0-0.4,0.2c-0.1,0.2,0,0.4,0.1,0.5c0.1,0.1,0.3,0.1,0.4,0c0.1-0.1,0.2-0.3,0.1-0.5c0,0-0.1-0.1-0.1-0.1c0,0,0,0,0-0.1
		c0.1,0,0.1,0,0.2,0.1c0,0,0,0.1,0.1,0.1c0,0,0,0,0,0c0,0.2,0.1,0.2,0.2,0.3c0.1,0,0.2,0.1,0.3,0.2c0.1,0.1,0.2,0.1,0.3,0.1
		c0.1,0,0.2,0,0.2,0c0.1,0,0.3-0.1,0.4-0.2c0,0,0.1-0.2,0.1-0.3c0,0,0,0.1,0.1,0.1c-0.1,0.3-0.2,0.5-0.3,0.8c0,0,0,0,0,0.1
		c0,0,0,0,0,0c0,0.2-0.2,0.2-0.3,0.3c-0.1,0.1-0.2,0.1-0.2,0.2C17.6,12,17.6,12,17.6,12z"/>
	<path fill="#010101" d="M14.3,10.1c0.1,0,0.2,0.1,0.2,0.2c0,0.1,0,0.1,0.1,0.2c0.1,0.2,0,0.3-0.1,0.4C14.3,11,14.2,11,14,11
		c-0.1-0.1-0.2-0.3-0.2-0.4C13.8,10.3,14,10.1,14.3,10.1z"/>
	<path fill="#060E0F" d="M15,11.1c0.1,0.2,0.2,0.1,0.3,0c0,0,0,0.1,0,0.1c0,0-0.1,0-0.1,0c-0.1,0.1-0.2,0-0.2,0
		C15,11.3,14.9,11.2,15,11.1z"/>
	<path fill="#4DA09A" d="M12,10.3c0-0.1,0-0.2,0-0.2C12.1,10.1,12,10.2,12,10.3C12,10.3,12,10.3,12,10.3z"/>
	<path fill="#C57C89" d="M12,10.3C12,10.3,12,10.3,12,10.3c0.1,0.1,0.1,0.1,0.1,0.2C11.9,10.4,12,10.3,12,10.3z"/>
	<path fill="#D0CBCD" d="M14.5,10.5c-0.1,0-0.1-0.1-0.1-0.2c0,0,0,0,0,0.1C14.5,10.4,14.5,10.4,14.5,10.5z"/>
	<path fill="#3A0519" d="M14.2,8.5c-0.1-0.2-0.1-0.3-0.1-0.5c0-0.1,0-0.1,0-0.2c0.1,0,0.1,0.1,0.2,0.1c0.2,0.1,0.3,0.2,0.4,0.4
		c-0.1-0.1-0.2-0.3-0.1-0.5c0.1-0.1,0.1-0.2,0.2-0.3c0.1,0,0.1,0.2,0.2,0.3C15,7.9,15.1,8,15.2,8.2c0-0.2,0-0.3,0-0.4
		c0-0.1,0-0.1,0.1-0.1c0.1-0.1,0.1-0.1,0.2-0.1c0.1,0.1,0.1,0.1,0,0.2c0,0.2,0,0.4,0.1,0.5C15.7,8.1,15.7,8,15.7,8
		c0,0,0-0.1,0.1-0.1c0,0,0.1,0,0.1,0.1c0,0,0,0.1,0,0.1c0,0.1,0.1,0.2,0.2,0.3c0.1,0,0.2,0.1,0.2,0.2c0,0.1-0.1,0.1-0.2,0.1
		c-0.1,0-0.2,0-0.3,0c-0.1,0-0.2-0.1-0.3-0.1c-0.2,0-0.3,0-0.4,0.1c0,0-0.1,0-0.1,0c-0.2,0-0.3-0.1-0.5-0.2
		C14.3,8.5,14.3,8.4,14.2,8.5z"/>
	<path fill="#5D0826" d="M16.3,8.6c-0.1-0.1-0.1-0.2-0.3-0.2c-0.1,0-0.2-0.2-0.2-0.3c0-0.1,0-0.1-0.1-0.2c0,0.1-0.1,0.2-0.1,0.3
		c0,0,0,0.1-0.1,0.1c-0.1,0-0.1,0-0.1-0.1c-0.1-0.2-0.2-0.4-0.1-0.6c0,0,0,0,0-0.1c0,0,0-0.1,0.1,0c0,0,0,0,0,0
		c0.1,0.2,0.3,0.2,0.5,0.1c0.1,0,0.1,0,0.2,0.1c0,0.2,0.1,0.2,0.3,0.2c0.2,0,0.2,0,0.2,0.2c0,0.2-0.1,0.4-0.2,0.5c0,0,0,0,0,0
		C16.4,8.7,16.4,8.6,16.3,8.6z"/>
	<path fill="#F94355" d="M15.3,5.9c0.1-0.1,0.2,0,0.3,0c0.2,0.3,0.3,0.5,0.4,0.9C16,6.8,16,6.9,16,6.9c-0.1,0.1-0.1,0.3-0.2,0.4
		c0-0.2,0-0.3-0.1-0.5c0-0.2-0.1-0.5-0.2-0.7C15.5,6,15.4,6,15.3,5.9z"/>
	<path fill="#FA4455" d="M13.8,6.3c0.2,0,0.4,0.2,0.5,0.3c0.1,0,0.2,0.1,0.3,0.2c0,0,0.1,0.1,0.1,0.1c0,0,0,0,0,0.1
		c0.1,0.1,0.1,0.3,0.1,0.4c-0.3-0.4-0.7-0.8-1.2-1.1C13.8,6.3,13.8,6.3,13.8,6.3z"/>
	<path fill="#600928" d="M15.2,7.6c0,0.1,0,0.2,0,0.2c0,0.1,0,0.2,0,0.4c-0.2-0.2-0.3-0.5-0.4-0.7c0.1,0,0.2,0,0.3,0.1
		C15.1,7.6,15.2,7.6,15.2,7.6z"/>
	<path fill="#3D1E2F" d="M14.2,8.5C14.2,8.4,14.2,8.4,14.2,8.5c0.2,0,0.5,0.1,0.7,0.1c0,0.1,0,0.1-0.1,0.1c-0.2,0-0.3,0-0.5-0.1
		C14.3,8.6,14.2,8.6,14.2,8.5z"/>
	<path fill="#363C5B" d="M14.6,6.8c-0.1-0.1-0.2-0.1-0.3-0.2c0.1,0,0.1,0,0.2,0c0.2,0,0.2-0.1,0.1-0.2c0,0,0.1,0,0.1,0
		c0,0,0.1,0.1,0.1,0.2c0,0.1-0.1,0.2-0.1,0.3C14.7,6.8,14.7,6.8,14.6,6.8z"/>
	<path fill="#5F0927" d="M14.6,7.8c0,0.1,0,0.2,0.1,0.3c0,0.1,0.1,0.2,0.1,0.3c-0.2-0.2-0.4-0.4-0.6-0.6C14.3,7.7,14.5,7.8,14.6,7.8
		z"/>
	<path fill="#47C6CB" d="M16,6.9c-0.1,0-0.1-0.1-0.1-0.1C16,6.8,16.1,6.8,16,6.9C16.1,6.9,16.1,6.9,16,6.9z"/>
	<path fill="#2BD7D6" d="M14.6,6.8c0,0,0.1,0,0.1,0c0,0,0,0.1,0,0.1C14.7,6.9,14.7,6.9,14.6,6.8z"/>
	<path fill="#676B90" d="M16.1,6C16.1,6,16.1,6,16.1,6c0,0.1,0,0.3-0.1,0.4C16,6.3,16,6.2,16.1,6z"/>
	<path fill="#FDFEFE" d="M16.9,10.2c-0.3-0.1-0.5-0.3-0.6-0.6c0-0.3,0.1-0.5,0.4-0.6c0.4-0.2,0.7,0.1,0.8,0.4c0.1,0.3,0,0.5-0.2,0.7
		c0,0.1-0.1,0.1-0.2,0.1C17.1,10.2,17,10.2,16.9,10.2z"/>
	<path fill="#020101" d="M16.5,10.2C16.5,10.3,16.6,10.3,16.5,10.2c0,0.1-0.1,0-0.1,0.1c0,0.1,0.1,0.1,0.2,0.1c0,0,0-0.1,0,0
		c0.1,0.2,0,0.4-0.1,0.5c-0.1,0.1-0.3,0.1-0.4,0.1c-0.1-0.1-0.2-0.3-0.2-0.5C16,10.3,16.2,10.1,16.5,10.2
		C16.5,10.2,16.5,10.2,16.5,10.2z"/>
	<path fill="#0DE2E1" d="M17.2,10.2c0.1,0,0.2-0.1,0.2-0.1C17.4,10.2,17.3,10.3,17.2,10.2z"/>
	<path fill="#CE98A5" d="M18.5,9.2c0.1,0,0,0.1,0.1,0.2C18.5,9.3,18.6,9.3,18.5,9.2z"/>
	<path fill="#FA6173" d="M17.7,11.9c0.1-0.2,0.3-0.2,0.4-0.4c0,0,0.1-0.1,0.1-0.1c0,0.1,0.1,0.1,0.1,0.1c-0.1,0.1-0.2,0.2-0.3,0.4
		C17.9,11.9,17.8,12,17.7,11.9z"/>
	<path fill="#041111" d="M14.8,8.7c0,0,0.1-0.1,0.1-0.1c0.1,0,0.2-0.1,0.3-0.1c0.2-0.1,0.4,0,0.6,0.2c0.1,0.1,0,0.1,0,0.2
		c-0.1,0.1-0.1,0-0.2,0c-0.2,0-0.4,0-0.6,0C14.9,8.9,14.8,8.8,14.8,8.7z"/>
	<path fill="#3B1F30" d="M15.8,8.8c0-0.1,0-0.1,0-0.2c0.1-0.1,0.2,0,0.4,0c0.1,0,0.1,0,0.2-0.1c0.1,0.1,0.1,0.1,0.2,0.2
		c-0.1,0.2-0.3,0.1-0.5,0.1c-0.1,0-0.1,0-0.2-0.1C15.8,8.7,15.8,8.8,15.8,8.8z"/>
	<path fill="#F2F2F3" d="M16.6,10.4c0,0.1-0.1,0.1-0.2,0c-0.1,0-0.1-0.1-0.1-0.2c0,0,0.1,0,0.2,0C16.6,10.4,16.6,10.4,16.6,10.4z"/>
	<path fill="#125659" d="M15.3,11.3c0,0,0-0.1,0-0.1c0.1,0.1,0.1,0.1,0.3,0c0,0.1,0,0.1,0,0.2C15.4,11.4,15.4,11.4,15.3,11.3z"/>
</g>
<g>
	<path fill="#C22F3E" d="M15,1.7c7.3,0,13.2,5.9,13.2,13.2S22.3,28.1,15,28.1S1.8,22.2,1.8,14.9S7.7,1.7,15,1.7 M15,0.7
		C7.2,0.7,0.8,7,0.8,14.9S7.2,29.1,15,29.1s14.2-6.4,14.2-14.2S22.9,0.7,15,0.7L15,0.7z"/>
</g>
</svg>
